<svg xmlns="http://www.w3.org/2000/svg" width="800" height="800"><path fill="transparent" d="M0 0h800v800H0z"/><path fill="currentColor" d="m523.473 15.672 4.758.006q4.917.006 9.834.04c4.207.03 8.415.04 12.623.044q4.88.008 9.76.026l4.662.015q3.226.01 6.453.036l3.704.02C578 16 578 16 579 17c1.783.31 3.576.565 5.371.797l3.403.459 3.663.494c10.49 1.479 20.385 3.588 30.501 6.66 3.505 1.002 7.065 1.747 10.625 2.528C641.832 30.011 651.479 32.74 660 37v2l4 1v2l2.5.25c7.88 1.688 14.728 6.544 21.5 10.75l1.732 1.07a869 869 0 0 1 5.58 3.492l1.778 1.103c3.776 2.404 6.938 4.984 9.91 8.335v2l2 .125c6.507 1.898 10.955 6.632 15 11.875l3 1v2l3 1a159 159 0 0 1 3 5 155 155 0 0 0 4.563 5.25l2.378 2.64c1.88 2.157 1.88 2.157 4.059 3.11a68 68 0 0 1 2.25 4.063c1.743 3.254 3.593 6.161 5.875 9.062 1.931 2.473 3.356 4.703 4.5 7.625 1.14 3.282 1.14 3.282 3.438 5.25 2.607 2.691 2.963 5.429 3.937 9q1.47 1.53 3 3a143 143 0 0 1 3.813 7.625l1.06 2.274c6.025 13.203 10.357 27.14 14.252 41.101.78 2.908.78 2.908 1.836 5.215 7.047 18.888 6.425 42.133 6.351 61.973l-.003 2.969c-.044 18.83-1.22 37.156-5.547 55.542-.932 4.04-1.697 8.1-2.45 12.176l-.398 2.15q-.458 2.488-.914 4.975h-2l-.148 1.836c-.87 9.748-2.597 18.006-6.555 26.992-1.794 4.389-3.053 8.888-4.305 13.457-1.025 2.805-1.94 3.673-3.992 5.715-1.118 2.815-1.118 2.815-2 5.938-1.19 4.003-2.386 6.815-5 10.062-1.619 3.507-2.997 6.993-4.312 10.625-2.188 5.95-4.989 11.644-7.688 17.375h-2l-.312 2.813c-.712 3.296-1.196 4.11-3.688 6.187l-1 2h-2v3h-2l-.312 1.563c-1.79 6.342-4.916 11.647-8.383 17.203-1.434 2.28-1.434 2.28-2.305 5.234l-3 1a101 101 0 0 0-3.937 6.813c-2.28 4.292-4.54 7.804-8.063 11.187-1.792 2.254-3.458 4.59-5.125 6.938l-1.34 1.841c-2.379 3.331-4.045 6.394-5.535 10.221a125 125 0 0 1-3.937 5.75l-2.09 2.922C692 514 692 514 689 515c-1.21 1.894-1.21 1.894-2.25 4.188-2.185 4.183-4.565 6.773-8.297 9.62-1.601 1.148-1.601 1.148-2.453 3.192h-2l-.812 1.75C672 536 672 536 670.625 537.813c-1.797 2.312-1.797 2.312-3.5 5.625-1.906 3.417-4.28 5.863-7.125 8.562l-1.625 2.25C657 556 657 556 654 557l-1.227 2.125c-2.453 3.977-5.699 6.759-9.148 9.875l-3.96 3.625-1.903 1.738c-2.316 2.152-4.543 4.386-6.762 6.637l-2.125 2c-1.98 1.947-1.98 1.947-3.25 4.5-1.702 2.618-3.313 3.586-5.886 5.242-3.398 2.458-6.204 5.567-9.114 8.57C596.727 615.425 596.727 615.425 592 617v2h-2v2q-2.494 2.008-5 4l-1.937 2.625c-2.472 2.845-4.457 3.474-8.063 4.375v2c-5.476 5-5.476 5-8 5v2c-1.898 1.621-1.898 1.621-4.375 3.438-2.899 2.13-4.606 3.533-6.625 6.562a295 295 0 0 1-5 3c-3.515 2.554-6.942 5.226-10.38 7.88l-2.1 1.6-1.904 1.466C535 666 535 666 533 666v2c-1.7 1.233-3.403 2.46-5.137 3.645-2.068 1.43-2.068 1.43-4.363 3.855-4.539 4.539-9.62 7.902-15.5 10.5h-2l-.77 1.879c-1.431 2.468-2.335 2.957-4.918 4.058-5.098 2.36-9.512 5.21-13.437 9.25C485 703 485 703 482.375 704c-2.54.762-2.54.762-3.375 3.063L478 709c-2.625.75-2.625.75-5 1v2l-1.934.586-2.503.789-2.497.773c-2.244.66-2.244.66-3.066 2.852l-2.812.875c-3.234.884-3.234.884-5.188 3.125-2.465 2.465-4.715 2.952-8 4l-1.371 1.39c-2.017 1.994-4.092 3.04-6.629 4.298l-2.625 1.324C434 733 434 733 431 733v2c-4.831 4.07-10.645 6.115-16.582 8.008-2.428.813-2.428.813-3.867 2.449-2.212 2.2-4.66 2.976-7.551 4.106-3.307 1.3-6.035 2.46-9 4.437h-3v2l-3.043 1.137-4.144 1.55-2.192.82a1070 1070 0 0 0-13.683 5.243c-4.277 1.649-8.508 3.063-12.938 4.25q-3.25 1.029-6.5 2.063c-4.528 1.404-8.784 2.498-13.5 2.937v2l-3.184.77c-12.204 2.742-12.204 2.742-23.816 7.23-1.442.105-2.89.149-4.335.161l-2.724.03-2.96.012-3.06.017q-3.219.014-6.438.02c-3.244.01-6.487.04-9.731.072-10.637.053-20.537.006-30.752-3.312v-2l-1.625-.156c-6.094-.882-11.215-2.948-16.687-5.657-.682-.33-1.363-.662-2.065-1.003-4.284-2.19-7.318-4.622-10.623-8.184a278 278 0 0 0-3.875-3.187c-6.836-5.96-11.257-13.053-14.203-21.586-.82-2.282-.82-2.282-2.422-4.07-1.684-2.422-2.043-3.984-2.414-6.887l-.367-2.682-.344-2.775q-.357-2.742-.727-5.481c-.1-.807-.202-1.614-.307-2.446-.157-1.892-.157-1.892-1.341-2.886-.29-4.784-.245-9.583-.25-14.375l-.003-2.137c.016-16.316 2.007-30.997 7.253-46.488q.578-2.12 1.125-4.25L200 642l2-1c.546-2.509.546-2.509.875-5.5.887-5.785 2.475-10.322 5.125-15.5l1.418-2.906c3.624-7.378 7.323-14.666 11.824-21.551l1.218-1.864q1.198-1.823 2.418-3.632c2.361-3.573 3.953-6.928 5.122-11.047h2v-2h2l1-5h2v-2c1.504-1.445 1.504-1.445 3.563-3.125 3.648-3.094 6.754-6.387 9.847-10.027 2.076-2.412 4.31-4.629 6.59-6.848l2.266-2.285a347 347 0 0 1 8.859-8.465l1.59-1.496c2.42-2.237 4.12-3.699 7.285-4.754l2.188-2.187c11.938-11.94 26.962-18.999 43-23.563l2.23-.64c8.627-2.347 17.111-2.791 26.02-2.798l2.658-.037c8.474-.018 16.335 1.53 24.404 4.1l3.031.93c2.867 1.388 3.3 2.326 4.469 5.195 2.181 1.025 2.181 1.025 5 2 3.191 1.419 6.214 2.88 9 5 1.063 3.313 1.063 3.313 1 6h2l2 5h2c.902 2.707 1.119 4.238 1.098 7.012l-.01 2.295-.026 2.38-.013 2.417q-.02 2.947-.049 5.896h-2l-.078 1.723c-.433 5.895-1.786 9.297-4.922 14.277l-1.437 3.5c-1.507 3.375-3.23 5.882-5.442 8.797-1.34 1.86-1.34 1.86-2.121 5.015L390 588a156 156 0 0 1-5 2 125 125 0 0 0-4 6 371 371 0 0 1-5 5c-2.541 2.647-5.052 5.324-7.562 8l-1.999 2.117c-2.716 2.894-5.335 5.75-7.779 8.883l-1.66 2h-2l-.875 1.75L351 630h-2l-.78 1.763c-1.326 2.432-2.787 4.063-4.74 6.022l-2.1 2.108-2.192 2.17-2.159 2.181c-3.494 3.481-6.698 6.341-11.029 8.756-3.936 3.685-6.945 7.665-9.312 12.5-2.522 4.9-6.186 7.655-10.579 10.871-2.205 1.46-2.205 1.46-3.109 3.629h-2l-.687 1.625C299 684 299 684 296.438 687.063c-2.573 2.74-2.573 2.74-3.438 5.937h-2l-.125 2.438c-1.027 4.183-2.883 6.721-5.32 10.214-4.529 6.838-6.608 14.456-8.555 22.348h-2q.134 4.032.313 8.063l.068 2.279c.294 6.175 1.358 11.264 5.744 15.908 12.285 7.478 25.57 4.953 38.875 1.75 3.447-1.114 6.696-2.52 10-4 2.516-1.055 5.034-2.1 7.563-3.125l1.947-.79c4.795-1.905 9.418-3.195 14.49-4.085v-2l3.688-1.25c2.727-1.012 4.364-1.793 6.625-3.687 2.721-2.09 4.78-2.904 8-4 6.627-2.287 11.851-5.316 17-10.063 3.616-3.236 7.606-4.886 12.035-6.781 4.411-2.027 8.183-4.598 11.464-8.219 2.194-2.005 3.956-2.93 6.625-4.187 6.694-3.204 12.55-7.511 18.563-11.813q2.622-1.847 5.25-3.687l2.398-1.688c3.072-2.123 6.2-4.155 9.344-6.168 2.053-1.404 2.053-1.404 3.738-3.227 3.309-3.251 7.006-5.942 10.707-8.73l4.497-3.406 2.136-1.614a178 178 0 0 0 4.778-3.824C483 658 483 658 486 657c2.381-2.661 3.866-4.597 5-8 4.333-3 4.333-3 7-3l1-3 3-1a131 131 0 0 0 4-5c1.828-2.16 3.044-3.02 5.672-4.195 4.026-2.183 6.934-4.887 10.203-8.055q1.745-1.666 3.492-3.328c.592-.565 1.184-1.13 1.794-1.71 1.86-1.732 3.769-3.39 5.698-5.044 5.631-4.885 10.759-10.276 15.957-15.611.77-.78 1.54-1.561 2.332-2.366l2.1-2.15C555 593 555 593 557 593l.738-1.734c1.487-2.67 3.243-4.404 5.45-6.516 3.629-3.542 7.02-7.187 10.316-11.04C575 572 575 572 577.25 569.813c1.868-1.782 1.868-1.782 3.125-4.25 1.653-2.606 3.43-4.041 5.828-5.93 3.22-2.926 5.795-6.41 8.504-9.804 2.047-2.524 4.162-4.932 6.356-7.328 4.387-4.883 8.143-10.151 11.937-15.5q1.934-2.658 3.875-5.312l1.977-2.731a811 811 0 0 1 4.734-6.445c4.593-6.244 8.645-12.21 11.414-19.512h2l.75-2.187C639 488 639 488 640.875 485.75c2.8-3.623 4.398-7.534 6.125-11.75h2l.375-2.25c1.222-5.378 3.697-7.918 7.625-11.75 2.18-2.658 3.599-5.103 4.813-8.312l1.027-2.668L664 446q1.434-3.563 2.875-7.125c11.096-27.71 19.146-54.157 18.813-84.312l-.017-3.245c-.109-15.83-.914-30.406-6.671-45.318l-1.053-2.82c-1.94-5.147-3.982-10.234-6.194-15.27-.768-1.95-1.29-3.87-1.753-5.91h-2c-1.588-2.206-2.958-4.512-4.367-6.836-1.727-2.288-2.998-3.126-5.633-4.164v-2h-2l-1-3c-2.092-1.821-2.092-1.821-4.562-3.562A80 80 0 0 1 646 259v-2l-2.437-.75a81 81 0 0 1-7.75-3.187c-22.297-10.06-55.435-9.517-78.208-1.004-3.131 1.131-6.254 1.782-9.511 2.437-2.214.533-4.232 1.282-6.344 2.129-3.3 1.21-5.31 1.697-8.75 1.375v2l-1.687.48c-4.955 1.515-8.965 3.408-13.278 6.254-4.624 2.876-9.56 4.848-14.785 6.329-3.228.93-5.401 2.2-8.25 3.937-2.06.807-4.134 1.544-6.23 2.254-1.978.703-1.978.703-3.77 2.746l-3.5.938c-3.737.73-3.737.73-5.5 4.062-1.805.914-1.805.914-3.875 1.625l-2.055.727c-2.07.648-2.07.648-4.265 1.046L464 291l-1 3c-5.222 3-5.222 3-8 3v2q-2.842 1.44-5.687 2.875l-3.2 1.617C443 305 443 305 440.355 305.882c-2.551 1-2.551 1-4.289 3.544-2.438 3.037-4.613 4.137-8.128 5.762-3.165 1.482-6.026 2.87-8.938 4.812h-4v2c-5.75 3-5.75 3-8 3l-.16 1.84c-.84 2.16-.84 2.16-3.274 3.539l-3.003 1.183C396.03 333.29 396.03 333.29 393 337c-1.652.703-3.32 1.366-5 2a115 115 0 0 0-4.687 3.125C379.22 345 379.22 345 377 345v2l-3.187 1.813-1.926 1.105a876 876 0 0 1-4.762 2.707c-2.25 1.2-2.25 1.2-3.125 3.375h-2l-1 3c-4.101 3.8-8.913 5.82-14 8a106 106 0 0 0-3.75 2.688C340 372 340 372 337 372c-.07.587-.14 1.173-.21 1.777-1.614 4.545-6.825 6.82-10.79 9.223a66 66 0 0 1-3.812 1.625c-3.306 1.193-3.306 1.193-5.625 3.813-2.75 2.75-5.178 3.975-8.645 5.601-3.731 1.87-6.478 4.487-9.293 7.524-2.516 2.336-4.486 3.291-7.656 4.48-3.372 1.639-6.102 4.124-8.953 6.531C280 414 280 414 277 414l-.125 1.75c-1.35 3.47-3.7 4.427-6.875 6.25l-3.172 1.254c-4.57 1.929-8.441 4.736-12.453 7.621l-2.234 1.566c-4.103 2.92-7.647 5.943-11.141 9.559a177 177 0 0 1-4 2l-2 3h-4v2l-1.836.848c-5.686 2.72-10.741 5.834-15.851 9.515a67 67 0 0 1-12.688 7.075c-5.643 2.432-10.88 5.262-15.812 8.937-6.512 4.808-14.578 8.655-22.25 11.188-3.261 1.315-4.644 2.25-7.125 4.562-3.313 3.078-5.9 3.526-10.438 3.875l-3 2a69 69 0 0 1-4.598 1.254l-2.677.65-2.787.659q-2.738.654-5.473 1.316l-2.45.58c-2.064.482-2.064.482-4.015 1.541-2.12.366-4.246.694-6.375 1-4.29.581-4.29.581-8.508 1.52-4.305.975-8.786.665-13.18.668l-2.99.037c-6.872.013-13.23-.84-19.947-2.225q-2.654-.444-5.312-.875c-5.211-1.057-8.868-3.156-12.504-7.09-2.451-2.284-4.69-3.368-7.746-4.723C35.05 487.264 27.68 482.163 23 474l-2.375-1.812C17.192 469.326 15.02 465.972 13 462v-2l-3-1c-1.375-2.812-1.375-2.812-2.11-4.738-.89-2.347-.89-2.347-2.156-4.867-3.485-7.423-4.594-13.952-4.703-22.124q-.034-2.415-.105-4.832c-.485-16.906-.575-35.293 6.105-51.134 1.028-2.444 1.755-4.878 2.469-7.43 1.958-6.676 4.917-12.75 8.063-18.937 3.256-6.453 5.55-12.973 7.437-19.938h2l.719-2.043c1.591-3.673 3.616-6.912 5.781-10.27l1.223-1.955c1.035-1.615 2.15-3.179 3.277-4.732h2l.234-1.57c1.09-3.459 3.043-6.297 5.016-9.305l1.16-1.816c1.95-3.006 3.97-5.824 6.305-8.543 2.38-2.882 3.345-5.179 4.285-8.766h2l1-3a149 149 0 0 1 3.336-3.355C69.176 263.872 74.05 258.7 77 251l3-1q.53-1.993 1-4c2.205-2.756 5.004-4.202 8-6l1.625-1.687C92 237 92 237 95 237l.297-1.762c.843-2.685 2.035-4.003 3.953-6.05 2.4-2.628 4.562-5.244 6.563-8.188l2.187-3h2l.309-1.824c.816-2.569 1.661-3.334 3.754-4.988l1.902-1.547L118 208a517 517 0 0 0 4.125-3.562l2.016-1.758a93 93 0 0 0 4.734-4.618C131 196 131 196 133 196v-2h2v-2c2.804-2.609 4.995-4.608 8.563-6 3.261-1.338 4.96-3.491 7.437-6a358 358 0 0 1 6.188-5.312c.57-.48 1.14-.96 1.728-1.453 19.494-16.333 19.494-16.333 28.775-21.829 2.275-1.385 3.828-2.952 5.645-4.875 3.177-2.923 6.803-5.291 10.336-7.761 2.407-1.56 2.407-1.56 3.328-3.77l2.875-1.125c3.639-1.453 6.5-3.524 9.625-5.875 3.068-2.306 5.852-4.362 9.438-5.75 4.007-1.636 6.007-4 8.75-7.25 3.494-3.023 8.574-6 13.312-6l1-3c2.766-1.246 2.766-1.246 6.25-2.437 5.662-1.941 9.586-4.183 13.625-8.626 2.762-2.518 5.674-3.544 9.125-4.937l2.563-1.562c2.739-1.616 5.407-2.491 8.437-3.438 4.248-1.427 4.248-1.427 7-5 2.291-.684 4.546-1.007 6.906-1.375 2.468-.494 2.468-.494 4.094-3.625 6.111-3 6.111-3 10-3v-2l8.952-3.582c2.983-1.194 5.966-2.386 8.954-3.566 3.946-1.561 7.85-3.171 11.719-4.914 7.414-3.316 14.975-5.8 22.74-8.137 2.743-.836 5.365-1.666 7.932-2.953C382 46 382 46 385 46v-2c6.58-1.917 13.15-3.825 19.813-5.437 5.83-1.423 11.57-3.113 17.313-4.85 2.931-.88 5.8-1.7 8.815-2.236L433 31l1-2c6.496-2.946 13.714-3.614 20.729-4.354 3.43-.09 3.43-.09 6.271-1.646 6.548-1.804 13.347-2.437 20.08-3.161a178 178 0 0 0 13.222-1.983c9.792-1.815 19.234-2.27 29.17-2.184"/><path fill="#fbced2" d="M202 635h1v6l-3 1-.297 1.625c-1.284 6.731-2.947 13.336-4.703 19.957-2.502 10.506-3.304 20.827-3.206 31.588.019 2.12.02 4.238.02 6.357-.604 6.211-.604 6.211 1.186 11.473.234 2.016.413 4.038.563 6.063l.253 3.347L194 725l-2-1c-.414-2.285-.414-2.285-.625-5.062l-.227-2.786L191 714l-3-1q-.075-6.803-.11-13.605-.015-2.308-.04-4.617c-.09-8.155-.136-15.868 2.15-23.778h2l-.07-2.195c-.129-6.884.158-11.937 4.07-17.805l.438-3.437c.58-3.68 1.257-4.797 3.562-7.563a88 88 0 0 0 2-5"/><path fill="#f9bec2" d="m598.938 245.75 3.407-.028c17.336.065 17.336.065 23.655 4.278l-2.095-.212c-21.624-2.015-49.315-4.45-69.37 5.169-3.701 1.523-6.59 1.422-10.535 1.043 2.484-2.484 4.157-2.668 7.563-3.437 3.64-.851 7.087-1.757 10.562-3.125 11.64-3.922 24.683-3.626 36.813-3.688"/><path fill="#f36b75" d="M3 388h1l-.048 3.602c-.055 4.487-.089 8.975-.117 13.463a982 982 0 0 1-.061 5.784C3.569 426.257 4.53 440.416 10 455c-6.11-5.36-8.21-13.999-8.812-21.812A348 348 0 0 1 1 425l-.058-2.69C.702 410.69.777 399.452 3 388"/><path fill="#f4787f" d="M540.956 15.725c4.19.042 8.382.06 12.573.08 8.157.042 16.314.11 24.471.195l1 2h-78v2l-18 1v-1c19.345-4.51 38.23-4.492 57.956-4.275"/><path fill="#f6989e" d="m652 465 2 1-1 4h-2l-1 7h-2l-.875 2.875C646 483 646 483 644 485a126 126 0 0 0-2 6h-2v3c-3 2.188-3 2.188-6 4l1-5h2l.75-2.187C639 488 639 488 640.875 485.75c2.8-3.623 4.398-7.534 6.125-11.75h2l.375-2.25c.58-2.551 1.362-4.477 2.625-6.75"/><path fill="#f47f86" d="M790 305h1c.179 5.004-.132 9.002-1.496 13.867-.563 2.385-.799 4.692-1.004 7.133-.384 4.515-1.288 8.637-2.5 13h-2l-.375 3.313C783 346 783 346 781 349c.964-9.41.964-9.41 2-14h2l-.187-3.062c-.017-9.087 2.625-18.281 5.187-26.938"/><path fill="#f58990" d="m319 780-1.898.621-2.477.817-2.46.808c-2.175.706-2.175.706-4.165 1.754-1.49.1-2.985.138-4.478.145l-2.812.02-3.046.003-3.124.01q-3.276.007-6.552.007c-3.342.002-6.685.02-10.027.04q-3.18.005-6.36.005l-3.033.022-2.831-.01-2.485.005c-2.476-.272-4.109-1.008-6.252-2.247l3.925.048c4.862.054 9.724.089 14.587.117q3.141.022 6.281.061c15.58.275 15.58.275 30.792-2.674 2.568-.587 3.958-.42 6.415.448"/><path fill="#f69299" d="M132 500c-5.846 2.635-10.545 4.561-17 4v2c-8.006 1.002-15.938 1.183-24 1.188l-3.715.037-3.535.005-3.203.013C78 507 78 507 76 505c.781.01 1.563.02 2.367.032 3.565.042 7.13.067 10.695.093l3.725.05c6.185.034 11.373-.143 17.213-2.175a74 74 0 0 1 4.813-.437c4.652-.378 8.754-1.521 13.156-3.04C130 499 130 499 132 500"/><path fill="#f2676e" d="m131 196 2 1c-2.88 5.155-6.036 9.69-11 13-2.687.125-2.687.125-5 0l-.75 1.75c-1.417 2.55-3.126 4.268-5.25 6.25l-1-2c3.649-4.606 7.089-7.726 12-11 3.09-2.913 6.057-5.939 9-9"/><path fill="#f7a6ac" d="M434 31c-5.527 1.889-11.115 3.518-16.723 5.145-3.251.948-6.46 1.919-9.66 3.035-2.747.86-3.968.839-6.617-.18l3.375-1.375c3.587-1.35 3.587-1.35 5.625-3.625q3.498-.517 7-1l1.875-.988c2.623-1.25 4.861-1.462 7.75-1.7l2.914-.261C432 30 432 30 434 31"/><path fill="#f37179" d="M191 673h1l-.016 3.564q-.026 6.522-.039 13.044-.008 2.827-.02 5.654c-.013 2.703-.018 5.406-.023 8.11l-.015 2.569c0 2.02.05 4.04.113 6.059l1 1c.234 2.016.413 4.038.563 6.063l.253 3.347L194 725c-2-1-2-1-2.626-2.641-1.722-8.047-1.643-16.032-1.58-24.22.019-2.463.02-4.927.02-7.391q.007-2.369.018-4.736l.003-2.213c.035-3.72.28-7.18 1.165-10.799"/><path fill="#f6989e" d="m277 530 2 1c-2.175 3.262-3.694 4.034-7 6-2.665 2.313-5.222 4.72-7.793 7.137C262 546 262 546 260 546l-.812 1.938C258 550 258 550 255 551l-.812 1.75c-1.74 3.295-4.264 4.962-7.188 7.25 2.66-6.287 7.526-10.603 12.61-14.93 3.498-3.03 6.88-6.184 10.265-9.338 2.3-2.127 4.511-3.99 7.125-5.732"/><path fill="#f69ca3" d="m389 337 2 1c-2.234 3.351-3.262 4.816-7.25 5.813L381 344v2h-3l-.266 1.863C377 350 377 350 375.328 351.23c-3.753 1.73-7.18 3.251-11.328 3.77a49 49 0 0 1 6.5-5.687l1.781-1.325C374 347 374 347 377 347v-2a91 91 0 0 1 5.438-3.562c3.466-1.973 3.466-1.973 6.562-4.438"/><path fill="#f36c73" d="M667 541c0 5.363-4.139 9.057-7.625 12.875C657 556 657 556 654 557l-1.375 2.313c-1.816 3.003-3.81 4.632-6.625 6.687.984-2.195 1.779-3.797 3.563-5.437 1.661-1.516 1.661-1.516 1.812-4 .865-3.545 2.644-4.6 5.625-6.563h2a89 89 0 0 0 4.125-4.5l2.195-2.531z"/><path fill="#faced2" d="M544 257c-4.642 2.533-8.652 4.465-14 5v2c-4.32 1.098-8.617 2.178-13 3 3.745-4.06 8.458-6.788 14-7.25l2 .25v-2c6.964-2.277 6.964-2.277 11-1"/><path fill="#f79fa6" d="m511 683 2 1-2 3h-2v2c-3.367 2.432-4.734 3-9 3l-.75 1.855c-1.477 2.535-2.63 3.21-5.25 4.457l-2.125 1.051L490 700l-2-1q3.122-2.193 6.25-4.375l1.777-1.25c2.911-2.028 5.777-3.84 8.973-5.375q1.53-1.47 3-3z"/><path fill="#f15861" d="m509 634 2 1-2.437 2.25c-2.333 2.503-3.198 3.468-3.563 6.75h-2v2c-3.736 2.717-7.556 3.867-12 5v-2c4.385-3 4.385-3 7-3l1-3 3-1a131 131 0 0 0 4-5 98 98 0 0 1 3-3"/><path fill="#ed212a" d="m396 573 1 2-2.375 3.125c-2.269 3.156-3.61 6.093-4.625 9.875l-5 1c-1-3-1-3-.145-4.824l1.332-1.864 1.293-1.886C389 579 389 579 393 579l.938-2.437C395 574 395 574 396 573"/><path fill="#facdd0" d="m251 781 3.867.96c8.002 1.601 16.127 1.507 24.258 1.665l4.922.117q5.976.142 11.953.258v1q-8.407.074-16.815.11-2.859.016-5.718.04c-2.743.025-5.486.036-8.229.045l-2.573.032c-4.348 0-7.705-.192-11.665-2.227z"/><path fill="#f7969c" d="m337.172 502.902 2.068.005c2.17.005 4.34.018 6.51.03q2.212.009 4.426.014 5.412.017 10.824.049v1l-1.674.06c-11.877.445-23.56 1.226-35.326 2.94 2-3 2-3 3.677-3.681 3.182-.437 6.283-.43 9.495-.417"/><path fill="#f1565e" d="m777 348 2 3 2-2c-.575 4.35-1.664 7.932-3.437 11.938-1.864 4.325-3.422 8.497-4.563 13.062-1.2-3.456-.77-5.404.438-8.812 1.384-4.24 1.65-7.712 1.562-12.188 1-2.937 1-2.937 2-5"/><path fill="#f79da3" d="M789 201c5.382 5.382 5.162 16.124 5.207 23.418-.028 3.53-.099 7.054-.207 10.582h-1l-.152-1.677c-1.11-13.317-1.11-13.317-3.48-26.448C789 205 789 205 789 201"/><path fill="#f6949b" d="M521 16v1l-20 1v2l-18 1v-1c12.743-2.498 24.98-4.74 38-4"/><path fill="#f8adb2" d="M608 603c.633 1.836.633 1.836 1 4-2.28 2.817-4.08 4.655-7.5 5.938-3.512 1.492-5.092 4.16-7.5 7.062-2.312.875-2.312.875-4 1v-2h2v-2c1.469-1.48 1.469-1.48 3.5-3.187l2.188-1.86L600 610q2.255-1.965 4.5-3.937z"/><path fill="#f04e55" d="m84 243 2 1c-.65 1.02-.65 1.02-1.312 2.063-1.8 2.949-1.8 2.949-3 6.437-2.03 4.208-3.971 5.774-7.688 8.5l-2-1 1.375-1.687c1.736-2.263 1.736-2.263 2.625-5L77 251l3-1q.53-1.993 1-4c1.563-1.75 1.563-1.75 3-3"/><path fill="#f47e85" d="M575 248c-2.715 1.473-5.092 2.327-8.125 2.875-3.542.721-6.628 1.802-9.937 3.25-4.58 1.935-8.002 2.24-12.938 1.875 2.484-2.484 4.157-2.668 7.563-3.437 3.83-.898 7.498-1.886 11.187-3.25 4.228-1.485 7.791-1.556 12.25-1.313"/><path fill="#f58890" d="M202 635h1v6l-3 1-.332 1.836c-1.172 6.195-2.751 12.159-4.668 18.164-1.44-3.892-.61-7.02.25-11l.766-3.687c.94-3.166 1.89-4.833 3.984-7.313a88 88 0 0 0 2-5"/><path fill="#f4828a" d="M280 712c1.572 3.143.04 5.93-.937 9.125l-.592 1.996A785 785 0 0 1 277 728h-2v17h-1a1053 1053 0 0 1-.125-8.562l-.05-2.424c-.064-7.716 1.977-14.062 5.175-21.014z"/><path fill="#f04c54" d="m220 450 4 2q-2.842 1.908-5.687 3.813l-3.2 2.144L212 460l-2.77 1.824L207 463l-2-1 2.938-1.812c3.293-1.9 3.293-1.9 4.062-5.188q2.963-1.575 6-3z"/><path fill="#f6949b" d="m320 384 2 1c-1.375 1.5-1.375 1.5-3 3h-2l-.687 1.938L315 392l-5 1-.937 1.875c-1.584 3.167-3.86 3.857-7.063 5.125l-2-1q2.651-1.975 5.313-3.937l2.988-2.215C311 391 311 391 314 390a141 141 0 0 0 5-5z"/><path fill="#f36d75" d="m345 746 2 1c-4.6 2.838-8.893 4.77-14.082 6.29-2.119.633-2.119.633-3.918 2.71-2.164.414-2.164.414-4.625.625l-2.477.227L320 757c1-2 1-2 3.3-2.895l3.012-.918c5.606-1.772 10.926-3.931 16.29-6.332z"/><path fill="#f5858c" d="M458 26c-8.092 2.612-15.412 4.712-24 4v-1c7.632-2.582 16.008-5.409 24-3"/><path fill="#f37179" d="m286 87 2 1c-3.49 4.004-5.65 5.627-11 6v2l-5 1c.563-1.812.563-1.812 2-4a110 110 0 0 1 7-3l2.813-1.75z"/><path fill="#f8b3b8" d="M2 433h1l1 7h2l.875 3.563C7.833 447.402 8.892 451.2 10 455c-4.752-4.07-7.486-11.24-8.32-17.344.008-1.906.008-1.906.32-4.656"/><path fill="#f7a9af" d="M763 395c.625 1.813.625 1.813 1 4l-2 3a75 75 0 0 0-1 5h-2v3l-3 1c.604-3.813 1.735-6.823 3.5-10.25l1.344-2.64C762 396 762 396 763 395"/><path fill="#f8a7ad" d="M787 327c1.456 4.52.27 7.516-1 12h-2l-.375 3.313C783 346 783 346 781 349c.964-9.41.964-9.41 2-14h2l.438-2.875C786 329 786 329 787 327"/><path fill="#f69098" d="m304 677 1 4-2.25 1.688c-3.332 2.801-5.943 5.604-7.812 9.562C294 694 294 694 291 695v-2h2l.285-1.703c.89-2.862 2.304-4.695 4.152-7.047l1.872-2.422L301 680h2z"/><path fill="#f6949b" d="m540 661 2 1-2.187 1.688c-2.85 2.257-2.85 2.257-5.313 4.875-2.391 2.33-4.502 3.979-7.5 5.437l-2-1c5.75-5 5.75-5 8-5v-2c1.531-1.29 1.531-1.29 3.5-2.625l1.969-1.352z"/><path fill="#f9c1c6" d="M205 622h2c-.69 4.125-1.949 7.845-3.437 11.75l-1.31 3.484C201 640 201 640 199 641l1-8h2l.402-1.898.536-2.477.527-2.46C204 624 204 624 205 622"/><path fill="#f6969c" d="m666 279 2 1v2h2q1.507 3.184 3 6.375l1.688 3.586C676 295 676 295 676 297l-4-1-.402-1.863-.535-2.45-.528-2.425c-.534-2.407-.534-2.407-1.535-5.262h-2z"/><path fill="#f8adb4" d="M423 741a973 973 0 0 1-6.187 3.438l-3.481 1.933c-2.898 1.417-5.164 2.205-8.332 2.629 1.418-2.836 3.22-3.462 6-5l1.969-1.117 2.094-1.133 1.972-1.078c2.379-.814 3.625-.485 5.965.328"/><path fill="#f1525a" d="M697 504c0 3.32-.437 4.025-2.312 6.625l-1.301 1.852C692 514 692 514 689 515c-1.667 1.5-1.667 1.5-3 3l-1-3c4.625-4.875 4.625-4.875 8-6a95 95 0 0 0 4-5"/><path fill="#f58289" d="M151 490c2.063.438 2.063.438 4 1-2.024 2.738-3.035 3.006-6.5 3.563L145 495l-3 2c-2.324.394-4.658.735-7 1 1.377-2.755 3.224-2.944 6.016-3.904l1.984-.659c4.331-1.164 4.331-1.164 8-3.437"/><path fill="#f79ba1" d="M202 465c-.184 1.89-.184 1.89-1 4-2.285 1.047-2.285 1.047-5.062 1.75l-2.786.734L191 472v2l-5 1c2.323-3.622 4.781-5.256 8.563-7.25l2.94-1.578C200 465 200 465 202 465"/><path fill="#f69ba2" d="M258 429v3c-2.888 2.108-4.385 3-8 3v2c-3 2-3 2-5.187 1.625L243 438q3.182-2.258 6.375-4.5l1.828-1.3c4.57-3.2 4.57-3.2 6.797-3.2"/><path fill="#f6949a" d="M782 176c2 1 2 1 3.125 4.25.73 3.127 1.067 5.576.875 8.75h2l1 9c-2.733-4.1-4.453-7.15-5.625-11.937-.26-1.04-.52-2.081-.79-3.153C782 180 782 180 782 176"/><path fill="#f79ea4" d="M385 46c-3.12 1.2-6.247 2.383-9.375 3.563L372.93 50.6l-2.578.966-2.38.905C366 53 366 53 364 52a418 418 0 0 1 3.813-2l2.144-1.125C372 48 372 48 375 48v-2c3.736-.764 6.348-1.072 10 0"/><path fill="#f47d84" d="M240 568v3h-2l-.375 1.813C237 575 237 575 235 578h-2l-.312 1.938L232 582l-3 1 1-4h2v-2h2l1-5h2v-2z"/><path fill="#f68e96" d="m292 404 2 1c-4.897 5.342-10.132 8.502-17 11v-2l3-1.625c4.277-2.431 8.125-5.356 12-8.375"/><path fill="#f8acb1" d="m660 38 8 1v2h4v2l3 1c-2.17.955-3.563 1.144-5.824.398-1.744-.757-3.462-1.574-5.176-2.398v-2z"/><path fill="#f3737b" d="M28 322c1 2 1 2 .512 3.77l-.825 2.043-.863 2.148L26 332l-1 2.938L24 337l-3 1 .875-2.562c1.133-3.462 2.143-6.932 3.125-10.438h2z"/><path fill="#f58d94" d="m189 149 2 1c-2.295 2.7-5.004 4.19-8.082 5.883-3.132 1.824-5.999 3.972-8.918 6.117l-1-2q2.591-1.91 5.188-3.812l2.917-2.145c2.586-1.825 5.086-3.583 7.895-5.043"/><path fill="#f7a5ab" d="M468 713v2h-3v3l-5 1v2l-5 1c.625-1.937.625-1.937 2-4 3.125-.75 3.125-.75 6-1l1-3c2-1 2-1 4-1"/><path fill="#fbd9dd" d="M406 534h2c1.967 3.293 2.27 5.813 2.25 9.625l.016 2.914C410 549 410 549 408 551z"/><path fill="#f8a9af" d="m662 446 2 1c-3.854 10.743-3.854 10.743-8 14 1.355-5.421 3.366-10.078 6-15"/><path fill="#f8b4b9" d="M632 252c5.687.464 9.257 1.775 14 5l1 3-4-1v-2l-2.687-.375c-3.017-.57-5.516-1.391-8.313-2.625z"/><path fill="#ed282f" d="m357 617 1 4-3 1a179 179 0 0 0-2 4l-3 2c.318-5.4 3.2-7.523 7-11"/><path fill="#f7a3a9" d="m709 487 1 4-3 1-.187 2.313C706 497 706 497 703.438 498.813L701 500c1.59-5.09 4.745-8.875 8-13"/><path fill="#f26a72" d="m642 486 1 4-3 1v3c-3 2.188-3 2.188-6 4l1-5h2l1-3a90 90 0 0 1 4-4"/><path fill="#f9b8bd" d="M404 749v2h-3v2l-6 1v2h-4v-2c8.387-5 8.387-5 13-5"/><path fill="#fbd8db" d="M471 21c-3.51 2.34-5.849 2.447-10 3q-3.502.992-7 2h-3v-2q3.592-.758 7.188-1.5l2.04-.434c3.647-.747 7.048-1.24 10.772-1.066"/><path fill="#ee2e36" d="m552 648 5 1c-1.41 2.82-3.227 3.581-6 5h-4z"/><path fill="#f8abb1" d="m324 508-2.195.586c-4.985 1.343-9.93 2.701-14.805 4.414 3.06-3.992 6.076-4.794 10.781-5.8 2.337-.21 3.995.097 6.219.8"/><path fill="#f69da4" d="M421 319v2c-3.73 2.034-5.67 3-10 3l-1 3h-3v-2c2.905-2.042 4.401-3 8-3v-2c2.076-.553 3.844-1 6-1"/><path fill="#f8b5ba" d="M606 21c5.527-.194 9.756.252 15 2v2c-5.239-.551-9.974-1.43-15-3z"/><path fill="#ec151c" d="m316 777-1 3h-13v-1c4.842-1.336 8.934-2.253 14-2"/><path fill="#f37077" d="m499 643 2 1c-1.062 2.375-1.062 2.375-3 5-3.687 1.313-3.687 1.313-7 2v-2c4.385-3 4.385-3 7-3z"/><path fill="#f5878f" d="m396 573 1 2-2.375 3.125c-2.269 3.156-3.61 6.093-4.625 9.875h-3c2.534-5.28 5.334-10.418 9-15"/><path fill="#f68f96" d="M39 489c10.743 3.854 10.743 3.854 14 8l-6-1v-2l-2.875-.937C41 492 41 492 39 491z"/><path fill="#fac8cc" d="M677 409c1.162 2.866.995 4.016.004 7.016l-1.442 3.234-1.433 3.266L673 425h-1c-.2-3.716-.152-4.772 2-8a253 253 0 0 0 2-6z"/><path fill="#f8aab0" d="M377 348v2c-8.262 4.408-8.262 4.408-13 5 3.839-4.03 7.226-7 13-7"/><path fill="#f8b7bc" d="M405 329v2c-4.385 3-4.385 3-7 3v2l-5 1c1.385-3.434 2.654-4.7 6-6.25l2.125-1.016C403 329 403 329 405 329"/><path fill="#f8a8ae" d="m434 732 2 1-3 1v2c-1.287.697-2.58 1.382-3.875 2.063l-2.18 1.16L425 740l-2-1c5.75-4 5.75-4 8-4v-2z"/><path fill="#f6959c" d="m578 630 1 3q-1.871 1.443-3.75 2.875l-2.11 1.617c-1.987 1.4-3.938 2.487-6.14 3.508v-2c5.476-5 5.476-5 8-5v-2z"/><path fill="#f6939b" d="M620 591c0 3 0 3-1.277 4.5l-1.66 1.5c-2.338 2.122-3.026 2.888-4.063 6l-4-1z"/><path fill="#f6969e" d="m637 574 1 4h-3v2c-1.531 1.508-1.531 1.508-3.5 3.125l-1.969 1.633L628 586l-2-1a376 376 0 0 1 2.875-3l1.617-1.687C632 579 632 579 634 579l.938-1.937C636 575 636 575 637 574"/><path fill="#f58d93" d="M530.36 260.316 532 261l-6 1v2c-2.25 1.688-2.25 1.688-5 3-2.172-.418-2.172-.418-4-1a403 403 0 0 1 5.25-3.062l2.953-1.723C528 260 528 260 530.36 260.316"/><path fill="#f6989e" d="m677 529 1 4-1.496 1.242-1.942 1.633-1.933 1.617c-1.737 1.43-1.737 1.43-2.629 3.508l-2-1q1.426-2.008 2.875-4l1.617-2.25L674 532h2z"/><path fill="#f68d95" d="m100 226 2 1-1.277 1.426-1.66 1.887-1.653 1.863C95.8 234.052 95.8 234.052 95 237c-2.062.688-2.062.688-4 1 1.444-3.239 3.258-5.62 5.625-8.25l1.914-2.14z"/><path fill="#f7a3a9" d="m236 776 12 3v1h-10z"/><path fill="#f69198" d="M349 772c-5.01 3.006-8.327 3.293-14 3 2.796-1.864 4.372-2.488 7.563-3.187l2.378-.543C347 771 347 771 349 772"/><path fill="#f6959d" d="M195 733c2.632 2.456 4.815 4.554 6 8a59 59 0 0 1-1 4 288 288 0 0 1-2.5-3.75l-1.406-2.11C195 737 195 737 195 733"/><path fill="#fac2c6" d="M338 503v1c-4.672 1.43-9.131 2.404-14 3 2-3 2-3 3.625-3.687 3.475-.458 6.87-.371 10.375-.313"/><path fill="#f58990" d="m241 439 2 1c-2.052 2.248-3.007 3.002-6 4l-2 3-4-1c6.77-5.846 6.77-5.846 10-7"/><path fill="#f7a5ac" d="M553.188 252.938 557 253c-4.836 3.224-7.27 3.092-13 3 2.881-2.881 5.287-3.126 9.188-3.062"/><path fill="#f8adb2" d="M313.313 73.313 315 74l-2.375.25L310 75l-1 2-1 2c-2.625.75-2.625.75-5 1l1-2h2v-2c4.153-3.115 4.153-3.115 7.313-2.687"/><path fill="#f7a0a6" d="m678 47 7 1v3l1.875.313C689 52 689 52 691 55c-2.968-1.457-5.864-3.012-8.75-4.625l-2.422-1.352L678 48z"/><path fill="#f58b93" d="M315 666c-.537 3.851-2.116 5.318-5.062 7.75l-2.223 1.86L306 677c0-3.74.934-4.453 3.375-7.187l1.898-2.168C313 666 313 666 315 666"/><path fill="#f6949b" d="m266 422 2 1c-3.173 3.536-5.167 5.586-10 6 2.578-2.648 4.916-4.944 8-7"/><path fill="#f79da4" d="M399 523h2v2h2v2h2l1 5h-2l-2-5h-2z"/><path fill="#fac0c5" d="M186 475v2c-2.647 1.46-3.894 2-7 2l-1 3-4-1a984 984 0 0 1 4.875-3l2.742-1.687C184 475 184 475 186 475"/><path fill="#fac6ca" d="M348 59c-3.692 3.538-7.094 3.591-12 4 1-2 1-2 2.996-2.887l2.442-.8 2.433-.825C346 58 346 58 348 59"/><path fill="#f7a3a9" d="M373 603c0 3.106-.54 4.353-2 7h-2l-1 3-3-1z"/><path fill="#ed252d" d="m377 595 1 4-5 4-1-3z"/><path fill="#f5858d" d="m277 530 2 1c-2.143 3.215-3.695 4.146-7 6l-3 2c1.583-4.274 4.506-6.265 8-9"/><path fill="#f36a72" d="m131 196 2 1c-1.187 2.438-1.187 2.438-3 5-2.687.813-2.687.813-5 1z"/><path fill="#f04d56" d="M354 57v2c-3.445 2.296-5.938 2.54-10 3 3.172-3.512 5.253-5 10-5"/><path fill="#f8b0b6" d="m548 655 2 1c-1 3-1 3-4 5-2.187-.375-2.187-.375-4-1z"/><path fill="#ef454f" d="M625 511c0 3.292-.505 5.085-2 8-2.125 1.313-2.125 1.313-4 2 1.37-3.995 3.257-6.8 6-10"/><path fill="#f58087" d="M10 455c3.351 2.234 4.816 3.262 5.813 7.25L16 465c-1.5-1.375-1.5-1.375-3-3v-2l-3-1z"/><path fill="#f79da4" d="M475 287v2c-6.4 3.077-6.4 3.077-9.437 2.688L464 291c3.653-2.334 6.616-4 11-4"/><path fill="#f7a4aa" d="m353 741 4 1h-3v2c-3 2-3 2-5.187 1.625L347 745l1-2h5z"/><path fill="#f03e46" d="m220 450 4 2-7 4c1.875-4.875 1.875-4.875 3-6"/><path fill="#f58e96" d="m345 367 2 1c-2.134 3.201-2.684 3.522-6.125 4.688l-2.195.761L337 374v-2q2.685-1.514 5.371-3.027c1.608-.87 1.608-.87 2.629-1.973"/><path fill="#f9c2c6" d="M504 272v2h-2v2l-7 1c1.631-3.262 5.38-5 9-5"/><path fill="#f0434d" d="m261 102 2 1c-4.297 4.004-4.297 4.004-6 5-2.203-.348-2.203-.348-4-1a351 351 0 0 1 3.875-2.562l2.18-1.442z"/><path fill="#ec141b" d="M248 777c3.52.587 5.713 1.356 9 3h-9z"/><path fill="#ec151c" d="M222 765h3v2h3v2l2 1c-3.375-.547-5.082-1.055-8-3z"/><path fill="#f25962" d="M202 635h1v6l-3 1-1 3c.61-3.558 1.578-6.683 3-10"/><path fill="#facccf" d="M205 622h2c-.53 3.821-1.497 6.062-4 9 .875-6.75.875-6.75 2-9"/><path fill="#f68b92" d="M53 497q2.222.676 4.438 1.375l2.496.773C62 500 62 500 63 502c-3.949-.564-6.709-1.743-10-4z"/><path fill="#f7abb1" d="M258 429v3c-2.375 1.75-2.375 1.75-5 3l-2-1c4.75-5 4.75-5 7-5"/><path fill="#ef3139" d="M764 386h1q-.173 2.22-.375 4.438l-.21 2.496L764 395l-2 1c-.195-6.055-.195-6.055 0-8z"/><path fill="#f5878f" d="M544 257c-2.9 1.934-3.897 2.301-7.187 2.625L533 260v-2c7.429-2.429 7.429-2.429 11-1"/><path fill="#f6949b" d="M387 726c-2.395 2.9-4.312 3.502-8 4 1-3 1-3 3.438-4.25C385 725 385 725 387 726"/><path fill="#f9c0c4" d="M556 650v3l-2 2c-2.125-.375-2.125-.375-4-1 2.052-2.248 3.007-3.002 6-4"/><path fill="#f0474f" d="m582 623 2 4-3 3-2-1c1.875-4.875 1.875-4.875 3-6"/><path fill="#fac8cc" d="m210 612 2 1c-2.75 6.875-2.75 6.875-5 8 1.875-6.75 1.875-6.75 3-9"/><path fill="#ee2c36" d="m557 592 2 1-5 5-3-1z"/><path fill="#f5858d" d="M240 568v3h-2l-.312 1.938L237 575l-3 1 1-4h2v-2z"/><path fill="#ed252d" d="M676 530v2h-2l-2 4-2-3c2.625-3 2.625-3 6-3"/><path fill="#f04851" d="M697 500h4c-.812 1.938-.812 1.938-2 4l-3 1-1-3z"/><path fill="#f3737a" d="M790 305h1c.37 7.385.37 7.385-1.5 10.5L788 317c.553-4.03 1.156-8.02 2-12"/><path fill="#f1585f" d="M715 73c2.622 1.049 3.794 1.65 5.25 4.125L721 79h-5v-4z"/></svg>