<svg id="visual" viewBox="0 0 900 600" width="900" height="600" xmlns="http://www.w3.org/2000/svg" xmlns:xlink="http://www.w3.org/1999/xlink" version="1.1"><rect x="0" y="0" width="900" height="600" fill="#f1f1f1"></rect><defs><linearGradient id="grad1_0" x1="33.3%" y1="0%" x2="100%" y2="100%"><stop offset="20%" stop-color="#c7c7c7" stop-opacity="1"></stop><stop offset="80%" stop-color="#c7c7c7" stop-opacity="1"></stop></linearGradient></defs><defs><linearGradient id="grad1_1" x1="33.3%" y1="0%" x2="100%" y2="100%"><stop offset="20%" stop-color="#c7c7c7" stop-opacity="1"></stop><stop offset="80%" stop-color="#dcdcdc" stop-opacity="1"></stop></linearGradient></defs><defs><linearGradient id="grad1_2" x1="33.3%" y1="0%" x2="100%" y2="100%"><stop offset="20%" stop-color="#f1f1f1" stop-opacity="1"></stop><stop offset="80%" stop-color="#dcdcdc" stop-opacity="1"></stop></linearGradient></defs><defs><linearGradient id="grad2_0" x1="0%" y1="0%" x2="66.7%" y2="100%"><stop offset="20%" stop-color="#c7c7c7" stop-opacity="1"></stop><stop offset="80%" stop-color="#c7c7c7" stop-opacity="1"></stop></linearGradient></defs><defs><linearGradient id="grad2_1" x1="0%" y1="0%" x2="66.7%" y2="100%"><stop offset="20%" stop-color="#dcdcdc" stop-opacity="1"></stop><stop offset="80%" stop-color="#c7c7c7" stop-opacity="1"></stop></linearGradient></defs><defs><linearGradient id="grad2_2" x1="0%" y1="0%" x2="66.7%" y2="100%"><stop offset="20%" stop-color="#dcdcdc" stop-opacity="1"></stop><stop offset="80%" stop-color="#f1f1f1" stop-opacity="1"></stop></linearGradient></defs><g transform="translate(900, 0)"><path d="M0 486.7C-48.9 478.5 -97.9 470.3 -148.3 456.5C-198.8 442.7 -250.8 423.3 -280.4 385.9C-310 348.5 -317.2 293 -348.7 253.3C-380.2 213.7 -435.9 190 -462.9 150.4C-490 110.8 -488.4 55.4 -486.7 0L0 0Z" fill="#e6e6e6"></path><path d="M0 324.5C-32.6 319 -65.2 313.5 -98.9 304.3C-132.5 295.1 -167.2 282.2 -186.9 257.3C-206.7 232.3 -211.5 195.3 -232.5 168.9C-253.4 142.5 -290.6 126.7 -308.6 100.3C-326.7 73.9 -325.6 36.9 -324.5 0L0 0Z" fill="#d1d1d1"></path><path d="M0 162.2C-16.3 159.5 -32.6 156.8 -49.4 152.2C-66.3 147.6 -83.6 141.1 -93.5 128.6C-103.3 116.2 -105.7 97.7 -116.2 84.4C-126.7 71.2 -145.3 63.3 -154.3 50.1C-163.3 36.9 -162.8 18.5 -162.2 0L0 0Z" fill="#c7c7c7"></path></g><g transform="translate(0, 600)"><path d="M0 -486.7C33.9 -435.1 67.8 -383.5 123 -378.5C178.1 -373.5 254.5 -415.1 286.1 -393.8C317.7 -372.5 304.4 -288.3 331.7 -241C359 -193.7 426.8 -183.3 459.4 -149.3C492 -115.2 489.4 -57.6 486.7 0L0 0Z" fill="#e6e6e6"></path><path d="M0 -324.5C22.6 -290.1 45.2 -255.7 82 -252.3C118.8 -249 169.7 -276.7 190.7 -262.5C211.8 -248.3 202.9 -192.2 221.1 -160.7C239.3 -129.1 284.5 -122.2 306.2 -99.5C328 -76.8 326.2 -38.4 324.5 0L0 0Z" fill="#d1d1d1"></path><path d="M0 -162.2C11.3 -145 22.6 -127.8 41 -126.2C59.4 -124.5 84.8 -138.4 95.4 -131.3C105.9 -124.2 101.5 -96.1 110.6 -80.3C119.7 -64.6 142.3 -61.1 153.1 -49.8C164 -38.4 163.1 -19.2 162.2 0L0 0Z" fill="#c7c7c7"></path></g></svg>