<?xml version="1.0" encoding="UTF-8"?>
<svg version="1.1" xmlns="http://www.w3.org/2000/svg" width="833" height="825">
<path d="M0 0 C274.89 0 549.78 0 833 0 C833 272.25 833 544.5 833 825 C558.11 825 283.22 825 0 825 C0 552.75 0 280.5 0 0 Z " fill="#FDFDFD" transform="translate(0,0)"/>
<path d="M0 0 C2.43021934 2.16099268 4.77401821 4.37373538 7.08203125 6.6640625 C7.96890625 7.5096875 8.85578125 8.3553125 9.76953125 9.2265625 C10.53265625 10.0309375 11.29578125 10.8353125 12.08203125 11.6640625 C12.58863281 12.17582031 13.09523438 12.68757813 13.6171875 13.21484375 C22.52300358 22.68868454 28.59553893 34.55729679 33.08203125 46.6640625 C34.2796909 33.2502744 28.06407388 17.42808915 19.7734375 7.02148438 C16.69906432 3.41484437 13.42823074 0.02013279 10.08203125 -3.3359375 C9.36515137 -4.05523437 9.36515137 -4.05523437 8.63378906 -4.7890625 C7.45193153 -5.97341515 6.26727449 -7.15497311 5.08203125 -8.3359375 C20.01886355 -9.21076282 34.31456596 -3.7087569 45.58203125 6.1015625 C56.07351722 16.26679932 63.12879638 28.45376072 63.51171875 43.31274414 C63.51429688 44.0886792 63.516875 44.86461426 63.51953125 45.6640625 C63.52339844 46.48060303 63.52726562 47.29714355 63.53125 48.13842773 C63.39525585 55.45448808 61.6754698 61.80465228 59.17578125 68.63671875 C57.96876673 71.44108482 57.96876673 71.44108482 58.08203125 73.6640625 C59.24832577 74.73267245 60.46709057 75.7443623 61.70703125 76.7265625 C66.15702928 80.47976368 69.10861873 84.69711205 72.08203125 89.6640625 C71.42203125 89.9940625 70.76203125 90.3240625 70.08203125 90.6640625 C68.19140625 89.765625 68.19140625 89.765625 65.83203125 88.2890625 C64.94 87.73734375 64.04796875 87.185625 63.12890625 86.6171875 C60.96003389 85.22688471 58.8059365 83.82335093 56.66015625 82.3984375 C39.85570557 71.27781119 21.62238422 66.38083793 1.44140625 70.38671875 C-1.46605862 71.30741596 -4.16088639 72.36435598 -6.91796875 73.6640625 C-7.70042969 74.02628906 -8.48289062 74.38851562 -9.2890625 74.76171875 C-20.55017967 80.51913568 -28.75970242 88.71603347 -34.91796875 99.6640625 C-27.6622774 101.7519247 -20.39150417 103.45309516 -12.984375 104.91796875 C-10.32763953 105.56438464 -8.27564138 106.31433837 -5.91796875 107.6640625 C-7.11292969 108.02757812 -8.30789063 108.39109375 -9.5390625 108.765625 C-22.04690459 112.5922407 -22.04690459 112.5922407 -32.91796875 119.6640625 C-33.68367188 120.30988281 -34.449375 120.95570313 -35.23828125 121.62109375 C-42.86832744 128.60900734 -46.81137684 136.91080881 -49.91796875 146.6640625 C-48.108125 146.35662109 -48.108125 146.35662109 -46.26171875 146.04296875 C-44.64715031 145.770745 -43.03256613 145.49861457 -41.41796875 145.2265625 C-40.62648438 145.09185547 -39.835 144.95714844 -39.01953125 144.81835938 C-30.93881714 143.46053446 -23.13164733 142.4929442 -14.91796875 142.6640625 C-14.77101563 143.83582031 -14.6240625 145.00757813 -14.47265625 146.21484375 C-12.55799355 160.13359624 -8.61323139 170.95140349 2.08203125 180.6640625 C12.0727443 187.87098554 21.83044174 189.84126828 33.95703125 189.8515625 C34.70855469 189.86380859 35.46007812 189.87605469 36.234375 189.88867188 C42.01290504 189.90353945 46.20294134 188.97052692 52.08203125 187.6640625 C53.07203125 195.2540625 54.06203125 202.8440625 55.08203125 210.6640625 C67.92272647 196.33368568 67.92272647 196.33368568 73.48828125 178.84765625 C71.42642065 167.76515554 63.49418779 158.77923936 54.51953125 152.6015625 C51.3097355 150.4725688 49.87668299 149.59548849 46.00390625 149.9296875 C45.0396875 150.17203125 44.07546875 150.414375 43.08203125 150.6640625 C35.56318451 152.24911668 29.91285814 151.3090442 23.08203125 147.6640625 C20.08256191 145.42908729 17.27228039 143.09151791 14.4921875 140.58984375 C11.1356329 137.90786414 8.18036527 137.57079233 3.97265625 137.34765625 C3.21855469 137.30576172 2.46445312 137.26386719 1.6875 137.22070312 C0.91019531 137.18138672 0.13289063 137.14207031 -0.66796875 137.1015625 C-1.85712891 137.03678711 -1.85712891 137.03678711 -3.0703125 136.97070312 C-5.0193469 136.86503259 -6.96863623 136.76408284 -8.91796875 136.6640625 C-3.9705094 132.74811413 1.63287336 130.07372131 7.20703125 127.1640625 C8.29757812 126.58269531 9.388125 126.00132812 10.51171875 125.40234375 C19.99853923 120.44332395 28.36081797 117.09760676 39.14453125 117.3515625 C39.92602539 117.35994141 40.70751953 117.36832031 41.51269531 117.37695312 C46.95121963 117.49049225 51.8171404 118.26009161 57.08203125 119.6640625 C60.45772921 119.83375431 60.45772921 119.83375431 63.08203125 119.6640625 C64.64727733 123.24176782 66.13044687 126.78212541 67.39453125 130.4765625 C71.02897461 140.07663259 77.23510539 147.38305829 83.90625 154.9921875 C87.08071169 158.62737959 90.10342554 162.36747137 93.08203125 166.1640625 C93.52635498 166.72706055 93.97067871 167.29005859 94.4284668 167.87011719 C102.69451173 178.45797844 102.69451173 178.45797844 102.08203125 183.6640625 C98.49342421 185.45836602 94.20806976 184.96016282 90.24609375 185.08984375 C86.4400947 185.7805621 85.34581089 186.56355705 83.08203125 189.6640625 C81.78285026 192.73699226 81.78285026 192.73699226 80.89453125 196.1015625 C80.40919922 197.77025391 80.40919922 197.77025391 79.9140625 199.47265625 C78.6010437 204.50897717 77.92478527 209.00471931 77.89453125 214.2265625 C77.88035156 215.34160156 77.86617187 216.45664062 77.8515625 217.60546875 C78.08026012 220.64055749 78.25806153 222.24853504 80.08203125 224.6640625 C84.22337889 226.78600833 87.85414666 226.94128173 92.46484375 227.0078125 C93.50896927 227.0297467 93.50896927 227.0297467 94.57418823 227.05212402 C97.53544356 227.11409287 100.49689766 227.15405194 103.45849609 227.19580078 C105.62749983 227.22953556 107.79606418 227.27462682 109.96484375 227.3203125 C111.25793457 227.33900391 112.55102539 227.35769531 113.88330078 227.37695312 C117.08203125 227.6640625 117.08203125 227.6640625 120.08203125 229.6640625 C112.82129913 232.43782533 105.49019902 235.00017674 98.14453125 237.5390625 C97.49864044 237.76260406 96.85274963 237.98614563 96.18728638 238.21646118 C88.84315276 240.75329824 81.49883732 243.23746375 74.01953125 245.3515625 C59.96156952 249.33468099 46.14816552 254.08421923 33.08203125 260.6640625 C32.42106445 260.98600586 31.76009766 261.30794922 31.07910156 261.63964844 C20.94771998 266.58774696 12.38920362 271.99713463 4.08203125 279.6640625 C5.08621094 279.15617187 6.09039062 278.64828125 7.125 278.125 C11.4343465 275.95175655 15.75658892 273.80505031 20.08203125 271.6640625 C21.13261719 271.14070313 22.18320312 270.61734375 23.265625 270.078125 C49.50001604 257.466107 78.22180927 250.00321506 106.79907227 245.10961914 C109.23154003 244.68569821 109.23154003 244.68569821 112.08203125 243.6640625 C113.41728842 243.58432774 114.75615208 243.55634912 116.09375 243.56640625 C117.22973633 243.57124023 117.22973633 243.57124023 118.38867188 243.57617188 C119.17435547 243.58455078 119.96003906 243.59292969 120.76953125 243.6015625 C121.56681641 243.60607422 122.36410156 243.61058594 123.18554688 243.61523438 C125.15107382 243.627004 127.1165621 243.64493902 129.08203125 243.6640625 C126.77575815 246.2685204 124.61645564 247.49599089 121.41796875 248.828125 C120.47308594 249.22346436 119.52820313 249.61880371 118.5546875 250.02612305 C117.53246094 250.44289307 116.51023437 250.85966309 115.45703125 251.2890625 C113.86568359 251.94612183 113.86568359 251.94612183 112.2421875 252.61645508 C103.55163425 256.16199146 94.75229207 259.34747493 85.90454102 262.47460938 C77.43139315 265.48787886 69.22118987 268.84491884 61.08203125 272.6640625 C59.90898438 273.20417969 58.7359375 273.74429687 57.52734375 274.30078125 C43.52907959 280.98814798 28.20113387 289.79343032 19.08203125 302.6640625 C19.54609375 302.33535156 20.01015625 302.00664062 20.48828125 301.66796875 C32.90727002 293.11832909 46.12770478 286.31382876 60.08203125 280.6640625 C61.25121094 280.18582031 62.42039062 279.70757812 63.625 279.21484375 C110.00223909 261.07155086 110.00223909 261.07155086 127.08203125 261.6640625 C127.08203125 262.9840625 127.08203125 264.3040625 127.08203125 265.6640625 C121.25438701 271.44175281 112.42348431 274.37773079 105.01953125 277.5390625 C69.05888735 292.78732414 69.05888735 292.78732414 44.08203125 321.6640625 C45.22873509 320.81106482 46.37432059 319.95656383 47.51953125 319.1015625 C48.26460938 318.54726563 49.0096875 317.99296875 49.77734375 317.421875 C51.19180138 316.34305138 52.5877658 315.23873762 53.94921875 314.09375 C59.07095304 309.8359227 64.59230756 306.4475161 70.33203125 303.1015625 C71.09362549 302.65466064 71.85521973 302.20775879 72.63989258 301.74731445 C83.743482 295.382651 95.42725627 290.66151924 107.39489746 286.22769165 C144.38494891 273.82928884 144.38494891 273.82928884 171.2265625 247.41796875 C174.3779598 239.11497222 173.7842898 231.9984314 170.21484375 223.9609375 C168.17063838 219.8161349 166.39189183 216.63806139 162.64453125 213.8515625 C159.08170337 212.66395321 156.49389085 212.52258114 152.76953125 212.4140625 C145.62159987 212.007468 142.08256135 209.58645931 137.08203125 204.6640625 C136.42203125 204.055625 135.76203125 203.4471875 135.08203125 202.8203125 C131.8741315 199.77280774 128.82080904 196.79365976 127.08203125 192.6640625 C127.39453125 189.8515625 127.39453125 189.8515625 128.08203125 187.6640625 C134.70703125 187.5390625 134.70703125 187.5390625 138.08203125 188.6640625 C142.60023528 188.97038142 145.84407798 188.93445469 150.01953125 187.1640625 C155.68623325 184.82419142 160.80340244 185.02156389 166.65625 186.671875 C171.88299116 188.0319006 177.02509409 187.91943962 182.39453125 187.8515625 C183.38259766 187.85091797 184.37066406 187.85027344 185.38867188 187.84960938 C190.82307903 187.85766213 190.82307903 187.85766213 196.08203125 186.6640625 C190.81428999 181.65645661 185.45611371 177.42468113 179.265625 173.62109375 C175.51969941 171.31838366 171.83182151 168.93412378 168.14453125 166.5390625 C166.67325877 165.5845095 165.20190237 164.63008583 163.73046875 163.67578125 C162.59303223 162.93787354 162.59303223 162.93787354 161.43261719 162.18505859 C159.04067184 160.63730002 156.64381819 159.09738166 154.24609375 157.55859375 C143.13936206 150.41314977 132.21623403 143.04825231 121.47607422 135.36181641 C119.10320325 133.67907678 116.70665728 132.03537282 114.3046875 130.39453125 C112.83374415 129.36064187 111.36364756 128.3255464 109.89453125 127.2890625 C109.21680664 126.83781006 108.53908203 126.38655762 107.84082031 125.92163086 C103.37903935 122.70618028 103.37903935 122.70618028 102.52197266 119.69897461 C102.30634652 117.69355803 102.19181243 115.6780482 102.08203125 113.6640625 C97.4211622 101.38152644 84.48617612 91.0571887 74.08203125 83.6640625 C74.74203125 83.3340625 75.40203125 83.0040625 76.08203125 82.6640625 C77.93530273 83.46166992 77.93530273 83.46166992 80.203125 84.76953125 C81.04689697 85.25260742 81.89066895 85.73568359 82.76000977 86.23339844 C83.67065186 86.76739258 84.58129395 87.30138672 85.51953125 87.8515625 C86.92513306 88.66608887 86.92513306 88.66608887 88.35913086 89.49707031 C97.75307213 94.98062254 106.95168497 100.75455701 116.08203125 106.6640625 C116.7265625 107.07736816 117.37109375 107.49067383 118.03515625 107.91650391 C127.73337929 114.14108456 127.73337929 114.14108456 130.08203125 117.6640625 C130.45703125 120.6640625 130.45703125 120.6640625 130.08203125 123.6640625 C127.40443325 126.5400011 124.84418272 126.98400527 121.08203125 127.6640625 C122.149375 128.30730469 123.21671875 128.95054687 124.31640625 129.61328125 C140.06276839 139.14416257 155.4656119 149.15873705 170.70703125 159.4765625 C171.59487305 160.07436523 172.48271484 160.67216797 173.39746094 161.28808594 C181.91899736 167.09400308 189.92787457 173.43740059 197.51953125 180.4140625 C198.02162109 180.86910156 198.52371094 181.32414063 199.04101562 181.79296875 C205.82883771 188.03237077 205.82883771 188.03237077 206.64453125 193.2890625 C206.55739892 197.21727829 205.13112283 199.30805777 202.89453125 202.4765625 C200.53238837 206.0953727 200.53238837 206.0953727 200.24609375 210.2890625 C201.06631357 213.13911924 202.04201623 215.88692094 203.08203125 218.6640625 C210.13342677 241.20997186 205.75272423 264.61221383 196.08203125 285.6640625 C193.54852734 291.03079401 193.54852734 291.03079401 193.53515625 296.78515625 C194.28787414 298.83229643 194.28787414 298.83229643 195.22265625 300.64453125 C200.21212503 312.36978288 197.4483508 328.85882665 193.0859375 340.26953125 C188.60968063 350.25979312 180.81503165 358.6020792 171.08203125 363.6640625 C170.42203125 363.6640625 169.76203125 363.6640625 169.08203125 363.6640625 C169.41203125 359.3740625 169.74203125 355.0840625 170.08203125 350.6640625 C168.82390625 352.0459375 167.56578125 353.4278125 166.26953125 354.8515625 C160.23835274 360.90179687 153.48199977 364.21370822 145.08203125 365.6640625 C145.56349609 367.35595703 145.56349609 367.35595703 146.0546875 369.08203125 C150.38091478 386.53638491 146.27723929 406.5218387 137.734375 422.0859375 C132.54808155 430.17802657 126.57170311 435.22786101 118.08203125 439.6640625 C121.08203125 430.6640625 121.08203125 430.6640625 121.84375 428.75463867 C124.24549812 422.40501707 124.54854778 416.59931019 124.45703125 409.8515625 C124.44833008 408.78856934 124.43962891 407.72557617 124.43066406 406.63037109 C124.2163313 395.18465039 121.33779203 386.16552262 117.08203125 375.6640625 C117.09250488 376.25195557 117.10297852 376.83984863 117.11376953 377.44555664 C117.566698 406.84290756 113.80638278 433.25599739 92.66015625 455.11328125 C91.809375 455.95503906 90.95859375 456.79679687 90.08203125 457.6640625 C89.22609375 458.52515625 88.37015625 459.38625 87.48828125 460.2734375 C77.88116883 469.81816608 66.95651609 477.22056269 55.85546875 484.89453125 C49.63568544 489.2834206 44.28876832 494.11020963 39.08203125 499.6640625 C36.25274563 496.83477688 36.74839701 494.93526561 36.70703125 490.9765625 C36.87395388 469.64641837 47.74274427 452.44396005 61.08203125 436.6640625 C74.21215565 421.1275274 83.39331984 404.39450867 82.44921875 383.59765625 C81.78293822 376.45994884 79.77168849 370.25956982 77.08203125 363.6640625 C74.44203125 363.6640625 71.80203125 363.6640625 69.08203125 363.6640625 C69.13423828 365.24767578 69.13423828 365.24767578 69.1875 366.86328125 C69.46064055 379.04033296 68.26192984 390.68899322 66.08203125 402.6640625 C65.95344727 403.37804199 65.82486328 404.09202148 65.69238281 404.82763672 C60.41568243 432.60080399 43.81774151 457.12621118 21.08203125 473.6640625 C15.24062982 477.63114212 9.24546483 481.33506972 3.23046875 485.03125 C1.90970133 485.84561682 0.58939375 486.66072987 -0.73046875 487.4765625 C-1.39087158 487.88406738 -2.05127441 488.29157227 -2.73168945 488.71142578 C-8.60477784 492.37865605 -14.24074345 496.35059297 -19.80786133 500.46606445 C-28.67931189 506.91016171 -36.09048491 510.41573951 -47.17578125 510.37109375 C-48.20484589 510.38621506 -49.23391052 510.40133636 -50.29415894 510.41691589 C-53.54399006 510.45950973 -56.7928873 510.46860371 -60.04296875 510.4765625 C-62.26174309 510.49972873 -64.48049558 510.52509845 -66.69921875 510.55273438 C-72.10547788 510.61530646 -77.51137626 510.65046506 -82.91796875 510.6640625 C-82.93100531 509.0689509 -82.94028943 507.47380835 -82.94799805 505.87866211 C-82.95357224 504.99037216 -82.95914642 504.10208221 -82.96488953 503.18687439 C-82.78920076 493.7405321 -79.15777583 484.9504091 -74.91796875 476.6640625 C-74.47582031 475.75914062 -74.03367187 474.85421875 -73.578125 473.921875 C-65.69766775 458.51023283 -52.73025812 446.36657227 -39.37109375 435.66015625 C-24.96647352 423.93919935 -13.86398482 406.77225641 -6.91796875 389.6640625 C-6.58796875 389.6640625 -6.25796875 389.6640625 -5.91796875 389.6640625 C-5.35913046 399.87838454 -6.5493912 407.97802148 -9.91796875 417.6640625 C-10.28019531 418.72238281 -10.64242188 419.78070312 -11.015625 420.87109375 C-14.04312454 429.19415181 -17.94990472 437.01983822 -22.00097656 444.87841797 C-23.32819259 447.46288496 -24.62350537 450.06307553 -25.91796875 452.6640625 C-8.77534763 440.21742536 4.24934879 425.440336 12.58203125 405.8515625 C12.90816406 405.0879541 13.23429687 404.3243457 13.5703125 403.53759766 C20.42373877 386.60453116 21.14958005 364.59423589 14.08203125 347.6640625 C13.67936035 346.67599609 13.67936035 346.67599609 13.26855469 345.66796875 C6.64942563 329.68823305 -2.99086575 317.04466751 -14.91796875 304.6640625 C-14.84868164 305.32946045 -14.77939453 305.9948584 -14.70800781 306.68041992 C-13.91852113 315.02832846 -13.6993484 323.32083897 -13.67773438 331.69897461 C-13.66802647 333.96310157 -13.63688135 336.2263186 -13.60546875 338.49023438 C-13.45658297 359.17045452 -19.16606317 377.54413584 -28.91796875 395.6640625 C-29.40136719 396.581875 -29.88476562 397.4996875 -30.3828125 398.4453125 C-34.25693748 405.36259073 -39.33930324 411.2040833 -44.56152344 417.12402344 C-45.78750539 418.51594103 -46.99821333 419.92127547 -48.20703125 421.328125 C-52.60427223 426.36496467 -57.30487163 430.94234459 -62.25878906 435.4206543 C-82.95101148 454.15045727 -97.97819791 473.86139734 -99.48046875 502.6015625 C-99.52365234 503.38080078 -99.56683594 504.16003906 -99.61132812 504.96289062 C-99.71624952 506.86313367 -99.81749325 508.76357919 -99.91796875 510.6640625 C-110.97713555 511.87787349 -110.97713555 511.87787349 -115.31640625 509.1640625 C-117.35814805 507.09811032 -119.14794647 504.96627411 -120.91796875 502.6640625 C-129.03901113 493.08823021 -137.69601897 486.02343109 -148.1784668 479.16601562 C-169.76264782 464.96949785 -182.70814709 447.33539868 -193.48046875 424.1640625 C-197.47241236 416.22036262 -203.48850122 410.85968961 -210.48046875 405.5390625 C-229.32706835 391.13594941 -243.34099527 373.34701862 -252.91796875 351.6640625 C-253.41039062 350.55417969 -253.9028125 349.44429688 -254.41015625 348.30078125 C-260.10653357 334.49802083 -261.40421397 321.37748264 -260.91796875 306.6640625 C-261.57796875 306.6640625 -262.23796875 306.6640625 -262.91796875 306.6640625 C-263.10746094 307.5303125 -263.10746094 307.5303125 -263.30078125 308.4140625 C-263.92038478 310.67287029 -264.76616657 312.56269991 -265.79296875 314.6640625 C-270.41399521 324.98578422 -271.40075931 335.20768269 -271.60546875 346.4140625 C-271.63962891 347.69539063 -271.67378906 348.97671875 -271.70898438 350.296875 C-271.7905372 353.41918312 -271.85998452 356.54124309 -271.91796875 359.6640625 C-285.25468281 346.72189506 -291.19730977 325.53335071 -293.91796875 307.6640625 C-294.04816406 306.88417969 -294.17835938 306.10429687 -294.3125 305.30078125 C-298.01300267 279.10122235 -291.65681247 252.85509952 -275.91796875 231.6640625 C-273.3602452 228.54975791 -270.72503056 225.55525968 -267.91796875 222.6640625 C-266.91796875 224.6640625 -266.91796875 224.6640625 -267.35522461 226.44482422 C-267.61182861 227.15396973 -267.86843262 227.86311523 -268.1328125 228.59375 C-268.40722168 229.38418701 -268.68163086 230.17462402 -268.96435547 230.98901367 C-269.40545654 232.25128784 -269.40545654 232.25128784 -269.85546875 233.5390625 C-272.38371397 241.06617636 -273.78067773 247.66004025 -272.91796875 255.6640625 C-272.51707031 254.79265625 -272.11617187 253.92125 -271.703125 253.0234375 C-264.49301107 237.91653212 -255.0911729 225.98974576 -241.35546875 216.2890625 C-240.56970459 215.72670898 -239.78394043 215.16435547 -238.97436523 214.58496094 C-234.22936795 211.21540188 -229.41017689 208.00535123 -224.48046875 204.9140625 C-215.05715403 198.9481445 -206.9579061 192.3261299 -199.91796875 183.6640625 C-200.46622314 183.77476074 -201.01447754 183.88545898 -201.5793457 183.99951172 C-221.70961928 188.05893736 -221.70961928 188.05893736 -230.91796875 189.6640625 C-227.67390677 186.31186512 -224.29586958 183.12729886 -220.85546875 179.9765625 C-220.01886719 179.20957031 -219.18226563 178.44257813 -218.3203125 177.65234375 C-213.93359277 174.02170904 -210.4707839 173.32097652 -204.80078125 172.734375 C-203.3736738 172.57704155 -201.94659129 172.41948167 -200.51953125 172.26171875 C-198.29793899 172.0251828 -196.07605082 171.79244891 -193.85351562 171.56494141 C-183.83211091 170.52536724 -174.54628048 168.79107761 -164.91796875 165.6640625 C-164.04108398 165.38916992 -163.16419922 165.11427734 -162.26074219 164.83105469 C-134.88803278 156.08284736 -110.21717626 142.39747854 -89.14453125 122.734375 C-86.93580731 120.68064923 -84.65451535 118.74048693 -82.35546875 116.7890625 C-77.24122421 112.26422558 -73.11249467 107.02952682 -68.91796875 101.6640625 C-67.58603857 99.99627428 -66.25313077 98.32926457 -64.91796875 96.6640625 C-65.90539062 97.10878906 -66.8928125 97.55351562 -67.91015625 98.01171875 C-69.20424572 98.58374381 -70.49852656 99.15533606 -71.79296875 99.7265625 C-72.44394531 100.02111328 -73.09492188 100.31566406 -73.765625 100.61914062 C-75.45807416 101.36067763 -77.1866545 102.01845251 -78.91796875 102.6640625 C-79.57796875 102.3340625 -80.23796875 102.0040625 -80.91796875 101.6640625 C-78.66968266 98.60030093 -76.41903558 95.53828138 -74.16796875 92.4765625 C-73.21664062 91.18008789 -73.21664062 91.18008789 -72.24609375 89.85742188 C-64.7361429 79.64858244 -59.06298038 73.78469144 -46.91796875 69.6640625 C-65.88682223 68.82822563 -82.7135804 72.15507011 -97.35546875 85.2890625 C-98.87688876 86.74678377 -100.39780121 88.20503515 -101.91796875 89.6640625 C-102.94921875 90.4684375 -103.98046875 91.2728125 -105.04296875 92.1015625 C-108.41384215 95.10603661 -111.00960629 98.42748549 -113.78125 101.98046875 C-117.29474674 106.39321511 -121.08835923 110.52616599 -124.91796875 114.6640625 C-125.48386719 115.31890625 -126.04976562 115.97375 -126.6328125 116.6484375 C-146.18293096 138.10480334 -177.76712345 147.57526411 -204.37890625 156.49609375 C-226.43002491 163.93660422 -246.02872521 174.52995031 -263.3203125 190.22216797 C-264.83478463 191.58898832 -266.37572542 192.92631274 -267.91796875 194.26171875 C-285.26511615 209.46456599 -298.07324485 229.96776795 -307.91796875 250.6640625 C-308.57796875 250.6640625 -309.23796875 250.6640625 -309.91796875 250.6640625 C-310.37280955 236.69695123 -310.43510371 223.99476046 -305.91796875 210.6640625 C-305.53253906 209.51679688 -305.14710938 208.36953125 -304.75 207.1875 C-300.77212763 196.19363915 -295.45677488 186.59200682 -287.91796875 177.6640625 C-287.28503906 176.88546875 -286.65210938 176.106875 -286 175.3046875 C-270.23394756 156.72855067 -248.61349567 145.72177087 -226.05981445 137.5234375 C-215.98121499 133.85361215 -205.87406272 129.63479182 -196.91796875 123.6640625 C-224.6403094 123.0407427 -256.18123959 128.51196069 -279.91796875 143.6640625 C-276.03757002 127.28015674 -259.10539147 115.60342527 -245.60205078 107.22753906 C-231.05758682 98.55355587 -215.59991135 91.00710384 -198.91796875 87.6640625 C-198.96953125 86.66246094 -199.02109375 85.66085938 -199.07421875 84.62890625 C-198.90477056 80.32915846 -197.94484682 77.23461743 -196.41796875 73.2265625 C-196.17949219 72.59041016 -195.94101562 71.95425781 -195.6953125 71.29882812 C-195.11305951 69.75003518 -194.51695806 68.20645997 -193.91796875 66.6640625 C-194.64757812 66.880625 -195.3771875 67.0971875 -196.12890625 67.3203125 C-211.19954217 71.33914874 -227.7552062 71.75146887 -241.8046875 64.08984375 C-242.50207031 63.61933594 -243.19945312 63.14882812 -243.91796875 62.6640625 C-243.91796875 62.3340625 -243.91796875 62.0040625 -243.91796875 61.6640625 C-243.32072998 61.58478516 -242.72349121 61.50550781 -242.1081543 61.42382812 C-218.97369888 58.22097016 -201.63565645 49.80992818 -181.57763672 38.19775391 C-162.12879986 26.98262694 -142.03556941 18.04721724 -119.91796875 13.6640625 C-118.99097168 13.47859863 -118.06397461 13.29313477 -117.10888672 13.10205078 C-109.79184738 11.75200381 -102.7247824 11.3485519 -95.29296875 11.4140625 C-94.15851318 11.42155518 -93.02405762 11.42904785 -91.85522461 11.43676758 C-57.74739237 11.86894015 -27.73593121 22.44545484 -0.91796875 43.6640625 C-20.78374579 17.96094813 -50.38735757 4.85277648 -81.94726562 0.3762207 C-88.3929935 -0.44259635 -94.80182525 -0.51951773 -101.29296875 -0.5234375 C-102.35257813 -0.53568359 -103.4121875 -0.54792969 -104.50390625 -0.56054688 C-110.68575685 -0.57191057 -116.42127886 -0.07667986 -122.46728516 1.2331543 C-124.99994643 1.67847679 -127.3519265 1.73656738 -129.91796875 1.6640625 C-100.56474386 -30.87030006 -31.62142621 -25.31407346 0 0 Z " fill="#020202" transform="translate(455.91796875,157.3359375)"/>
<path d="M0 0 C143.88 0 287.76 0 436 0 C436 13.2 436 26.4 436 40 C292.12 40 148.24 40 0 40 C0 26.8 0 13.6 0 0 Z " fill="#000101" transform="translate(198,679)"/>
<path d="M0 0 C1.1758667 0.00137466 1.1758667 0.00137466 2.37548828 0.0027771 C4.02968414 0.00880785 5.68386935 0.02453827 7.33789062 0.04931641 C9.86629591 0.08581186 12.39323385 0.0903357 14.921875 0.08984375 C16.53126263 0.09967614 18.14064036 0.11133368 19.75 0.125 C20.5042627 0.12722565 21.25852539 0.12945129 22.03564453 0.13174438 C28.81541855 0.25401115 28.81541855 0.25401115 31.875 2.4609375 C33.9475827 5.56981155 34.12546795 6.23004277 34.12947559 9.75169182 C34.13530779 10.63239715 34.14113998 11.51310249 34.14714891 12.42049587 C34.14336958 13.38886572 34.13959026 14.35723556 34.13569641 15.35494995 C34.14143473 16.89708591 34.14143473 16.89708591 34.14728898 18.47037613 C34.15764748 21.9319622 34.15362139 25.39338328 34.1496582 28.85498047 C34.15400312 31.33003901 34.15918552 33.80509619 34.16514587 36.28015137 C34.17717548 42.31535241 34.1796843 48.35048805 34.17734561 54.38569508 C34.17556413 59.29071588 34.17730844 64.19572316 34.18157005 69.10074234 C34.18246284 70.14705376 34.18246284 70.14705376 34.18337366 71.21450279 C34.18458538 72.63147353 34.18579952 74.04844428 34.18701603 75.46541502 C34.19789869 88.7613647 34.19572577 102.05728903 34.18963119 115.35324015 C34.18446255 127.51970636 34.19571475 139.68609249 34.21472941 151.85254286 C34.23409702 164.34043661 34.24236563 176.82829246 34.23860615 189.31620133 C34.23669232 196.32903116 34.23919928 203.34179285 34.25332069 210.35461044 C34.26646455 216.94882052 34.26398907 223.54289656 34.25090981 230.13711548 C34.24853654 232.56030455 34.25130536 234.9835048 34.25953293 237.40668106 C34.26993862 240.70896168 34.2619491 244.01069716 34.2492218 247.31295776 C34.25659609 248.27686617 34.26397037 249.24077457 34.27156812 250.23389232 C34.22777448 255.61756933 33.88005306 259.45588444 29.875 263.4609375 C27.02575699 263.58685824 24.20208392 263.64961492 21.3515625 263.6640625 C20.49444672 263.66976257 19.63733093 263.67546265 18.75424194 263.68133545 C16.93675985 263.69080032 15.11926048 263.69732531 13.30175781 263.70117188 C10.51857574 263.71087275 7.73613339 263.74187964 4.953125 263.7734375 C3.19010857 263.77996771 1.42708684 263.78521811 -0.3359375 263.7890625 C-1.58762222 263.8075827 -1.58762222 263.8075827 -2.86459351 263.82647705 C-8.65269893 263.80413118 -8.65269893 263.80413118 -10.84527928 262.21091074 C-12.45158599 260.01434261 -12.5017198 258.81140612 -12.50531673 256.10492039 C-12.51375668 255.20966477 -12.52219662 254.31440915 -12.53089231 253.39202458 C-12.52488227 252.40740882 -12.51887222 251.42279306 -12.51268005 250.40834045 C-12.51806559 249.36321004 -12.52345113 248.31807962 -12.52899987 247.24127859 C-12.54336346 243.72201361 -12.53615494 240.20312033 -12.52905273 236.68383789 C-12.5347519 234.16774694 -12.54171438 231.65165859 -12.54985046 229.13557434 C-12.56597596 223.00042303 -12.56787234 216.86541011 -12.56263756 210.73024399 C-12.55860007 205.74464078 -12.56003439 200.75906786 -12.56538582 195.77346611 C-12.56613424 195.06453499 -12.56688266 194.35560388 -12.56765376 193.62519 C-12.5691852 192.18510552 -12.57072355 190.74502105 -12.57226873 189.30493658 C-12.58600458 175.79249602 -12.58054853 162.28011333 -12.56908352 148.76767408 C-12.55915041 136.4000444 -12.57209118 124.03256431 -12.59601771 111.66495771 C-12.62038806 98.97252854 -12.63002166 86.2801691 -12.62336498 73.587717 C-12.6198681 66.45920649 -12.62213561 59.33081105 -12.63961601 52.20231819 C-12.65584588 45.50052316 -12.65118862 38.79906016 -12.63231087 32.09725761 C-12.62861027 29.63333569 -12.63177592 27.16939278 -12.64219666 24.70549011 C-12.6553073 21.35016449 -12.64394657 17.99580151 -12.62620544 14.64051819 C-12.63581045 13.65813315 -12.64541546 12.67574811 -12.65531152 11.66359383 C-12.58384072 5.12506501 -12.58384072 5.12506501 -10.32463169 1.8550787 C-7.01805731 -0.24065014 -3.788103 -0.07217506 0 0 Z " fill="#020202" transform="translate(661.125,561.5390625)"/>
<path d="M0 0 C1.17018677 -0.00717545 1.17018677 -0.00717545 2.36401367 -0.01449585 C4.00799586 -0.01788758 5.65204615 -0.00873581 7.29589844 0.01220703 C9.80557295 0.03898858 12.31077629 0.0124405 14.8203125 -0.01953125 C16.42188482 -0.01622702 18.02345438 -0.00982049 19.625 0 C20.37096436 -0.01012115 21.11692871 -0.02024231 21.88549805 -0.03067017 C25.47071531 0.04956758 27.562631 0.48791282 30.51029873 2.56592464 C33.79079761 6.98058547 33.50613556 10.51198477 33.44068909 15.88124084 C33.44778347 16.91991301 33.45487786 17.95858517 33.46218723 19.02873224 C33.47981052 22.51440257 33.46163933 25.99896427 33.44360352 29.48461914 C33.44874061 31.98130299 33.45602029 34.47798321 33.46528625 36.97465515 C33.48190717 43.05483759 33.47514886 49.13458418 33.45719803 55.21472938 C33.44317398 60.15548412 33.43927879 65.09615162 33.4426403 70.03692436 C33.44311775 70.74003378 33.44359519 71.44314319 33.4440871 72.16755895 C33.44511342 73.59588638 33.44616878 75.02421378 33.44725286 76.45254117 C33.45582044 89.08243877 33.43914244 101.71218117 33.40942383 114.34204102 C33.38058009 126.60024533 33.37350566 138.85822612 33.38891602 151.11645508 C33.40567184 164.46323437 33.40971922 177.80990754 33.39220566 191.15668958 C33.39036125 192.57946518 33.38852652 194.00224078 33.38670158 195.4250164 C33.38578949 196.12506262 33.3848774 196.82510885 33.38393768 197.54636859 C33.37832888 202.48233197 33.38164258 207.41824359 33.38824654 212.35420418 C33.39677904 218.99528371 33.38384097 225.63608802 33.35639763 232.27713203 C33.34949436 234.71847067 33.34943646 237.15983937 33.35661316 239.60117722 C33.36526223 242.92577144 33.3494279 246.2493581 33.3271637 249.5738678 C33.33540446 250.5471067 33.34364523 251.5203456 33.35213572 252.52307659 C33.27174715 258.9967156 33.27174715 258.9967156 31.02375698 262.26334286 C27.59854644 264.43304078 24.13961233 264.21519078 20.21484375 264.16015625 C18.96883141 264.1623391 18.96883141 264.1623391 17.69764709 264.16456604 C15.94512416 264.16290888 14.19258639 264.15136798 12.44018555 264.13061523 C9.75572058 264.10162428 7.07322651 264.11001625 4.38867188 264.12304688 C2.68488623 264.1168103 0.98110681 264.10841999 -0.72265625 264.09765625 C-1.52582779 264.10059189 -2.32899933 264.10352753 -3.1565094 264.10655212 C-8.69875316 264.01252595 -8.69875316 264.01252595 -11.15405273 262.26196289 C-12.9572122 259.47394524 -13.31448794 257.77213681 -13.32451439 254.48073864 C-13.32958893 253.59854096 -13.33466347 252.71634327 -13.33989179 251.80741233 C-13.34038955 250.83223869 -13.34088731 249.85706505 -13.34140015 248.8523407 C-13.3457824 247.82102093 -13.35016465 246.78970116 -13.3546797 245.72712928 C-13.3681043 242.24866708 -13.37425474 238.77023024 -13.38037109 235.29174805 C-13.38826909 232.80698531 -13.39653784 230.32222373 -13.40515137 227.83746338 C-13.42913682 220.36472468 -13.44430328 212.89199015 -13.45721143 205.41922614 C-13.46092254 203.30928415 -13.46489584 201.19934282 -13.4689641 199.08940148 C-13.49419842 185.99212406 -13.51625553 172.89484562 -13.52869225 159.79754925 C-13.53162203 156.76322615 -13.53458368 153.72890309 -13.53759766 150.69458008 C-13.53834371 149.9403971 -13.53908976 149.18621411 -13.53985842 148.4091771 C-13.55251623 136.18764271 -13.58574454 123.96625366 -13.62739949 111.74478724 C-13.66979755 99.20269115 -13.69338475 86.66066953 -13.69861281 74.11850196 C-13.70202923 67.07428567 -13.71381138 60.03029658 -13.74671555 52.98615074 C-13.77760897 46.3615471 -13.78314488 39.73726822 -13.77133179 33.11257935 C-13.77111019 30.67808876 -13.77948563 28.2435803 -13.79698563 25.8091526 C-13.819543 22.4911969 -13.81144359 19.17469644 -13.79550171 15.85673523 C-13.8093838 14.88825376 -13.82326588 13.91977229 -13.83756864 12.92194289 C-13.78356407 8.37545564 -13.66705552 6.30944869 -10.88656044 2.56745625 C-7.30512119 0.04180362 -4.23358648 -0.05744079 0 0 Z " fill="#000000" transform="translate(151.1875,561.3359375)"/>
<path d="M0 0 C5.44047137 4.45129476 5.44047137 4.45129476 6.1015625 8.29296875 C6.36700326 12.46318274 6.1517412 15.35645472 3.5 18.6875 C-1.61056486 23.44961726 -4.47000916 23.318554 -11.25 23.25 C-11.35957031 23.8584375 -11.46914063 24.466875 -11.58203125 25.09375 C-14.36298148 40.46810898 -17.31696667 55.80365784 -20.375 71.125 C-20.54467285 71.97835937 -20.7143457 72.83171875 -20.88916016 73.7109375 C-22.85673793 83.59635241 -24.90220718 93.44658715 -27.25 103.25 C-35.39658354 101.44444755 -35.39658354 101.44444755 -39.23095703 100.57080078 C-42.58906795 99.80696078 -45.95058019 99.05938426 -49.3125 98.3125 C-50.9531543 97.93448242 -50.9531543 97.93448242 -52.62695312 97.54882812 C-72.68615579 93.13512624 -92.69033781 91.72349522 -113.1875 91.875 C-114.27608307 91.8786557 -115.36466614 91.8823114 -116.48623657 91.88607788 C-132.25055561 91.94810285 -147.7045489 92.40619737 -163.25 95.25 C-163.9423877 95.36746582 -164.63477539 95.48493164 -165.34814453 95.60595703 C-176.75703627 97.55036503 -188.00930776 100.5133194 -199.25 103.25 C-201.51998596 98.40753204 -202.29502542 93.36214425 -203.23828125 88.140625 C-203.42195251 87.14856049 -203.60562378 86.15649597 -203.79486084 85.1343689 C-204.38856977 81.92372355 -204.97547803 78.71187398 -205.5625 75.5 C-206.36725638 71.13755031 -207.1756519 66.77577835 -207.984375 62.4140625 C-208.27955772 60.81847 -208.27955772 60.81847 -208.58070374 59.19064331 C-210.27259878 50.0678287 -212.05847653 40.9678158 -213.92895508 31.87988281 C-214.19808716 30.56648926 -214.19808716 30.56648926 -214.47265625 29.2265625 C-214.70094116 28.12948975 -214.70094116 28.12948975 -214.93383789 27.01025391 C-215.25 25.25 -215.25 25.25 -215.25 23.25 C-212.0650201 23.9136512 -209.47811624 25.04147123 -206.6015625 26.55078125 C-205.68890625 27.02773438 -204.77625 27.5046875 -203.8359375 27.99609375 C-202.37027344 28.77146484 -202.37027344 28.77146484 -200.875 29.5625 C-199.864375 30.09359375 -198.85375 30.6246875 -197.8125 31.171875 C-185.88484348 37.46127205 -173.94082519 43.77658024 -162.27734375 50.546875 C-159.81625555 51.93143559 -158.00450272 52.80927956 -155.25 53.25 C-155.02183594 52.71117187 -154.79367187 52.17234375 -154.55859375 51.6171875 C-152.85355873 48.53285549 -150.61966641 46.01450063 -148.3125 43.375 C-144.33513609 38.75578636 -140.48562176 34.06670234 -136.75 29.25 C-132.21143496 23.41202866 -127.5147273 17.7317462 -122.703125 12.1171875 C-121.22043088 10.38422972 -119.74835049 8.64200079 -118.296875 6.8828125 C-116.98981601 5.3029208 -115.62754191 3.76882826 -114.25 2.25 C-112.25 2.25 -112.25 2.25 -110.83984375 3.61328125 C-110.29457031 4.25652344 -109.74929688 4.89976563 -109.1875 5.5625 C-108.24970703 6.66464844 -108.24970703 6.66464844 -107.29296875 7.7890625 C-104.40592072 11.26676854 -101.54588274 14.76578666 -98.6953125 18.2734375 C-96.1249335 21.4022375 -93.50453017 24.48354907 -90.875 27.5625 C-84.05665236 35.56549332 -77.52207885 43.81157813 -71.25 52.25 C-66.58753229 51.65041202 -62.87572281 49.66281484 -58.8125 47.4375 C-58.08313232 47.0444165 -57.35376465 46.65133301 -56.60229492 46.24633789 C-54.14790959 44.92080056 -51.69906197 43.58534406 -49.25 42.25 C-47.41165894 41.25483766 -45.57311137 40.26005674 -43.734375 39.265625 C-33.50001797 33.71830173 -23.31926206 28.09223396 -13.25 22.25 C-14.05824219 21.46367188 -14.86648438 20.67734375 -15.69921875 19.8671875 C-18.96146989 16.52000792 -18.96146989 16.52000792 -19.25 13.25 C-19.37375 12.13625 -19.4975 11.0225 -19.625 9.875 C-19.11907818 4.98442241 -17.7369732 3.65772381 -14.25 0.25 C-9.7417032 -3.05608432 -4.75210319 -2.55882479 0 0 Z " fill="#020202" transform="translate(530.25,24.75)"/>
<path d="M0 0 C0.717323 -0.00619858 1.434646 -0.01239716 2.17370605 -0.01878357 C3.68659104 -0.02587072 5.1995542 -0.02272683 6.71240234 -0.01000977 C9.02457326 0.00386618 11.33270158 -0.03023067 13.64453125 -0.06835938 C15.11718849 -0.06931057 16.58985078 -0.0674517 18.0625 -0.0625 C19.09546204 -0.08238731 19.09546204 -0.08238731 20.14929199 -0.10267639 C23.54949174 -0.03685874 25.19663909 0.2544659 27.71324921 2.60057068 C30.00290976 6.33585877 30.0895779 9.40140225 30.03918457 13.65087891 C30.04542453 14.46016657 30.0516645 15.26945423 30.05809355 16.10326576 C30.07403703 18.81263057 30.06141424 21.52109741 30.04882812 24.23046875 C30.05424865 26.17381312 30.06137091 28.11715338 30.07006836 30.06048584 C30.0883129 35.33731906 30.08122944 40.61383967 30.06855202 45.89067841 C30.05843026 51.41101427 30.06781541 56.93132324 30.07409668 62.45166016 C30.08137547 71.72237965 30.07177924 80.99297172 30.05273438 90.26367188 C30.03096525 100.98434728 30.03801645 111.7047184 30.06004 122.42538643 C30.07818733 131.62721424 30.08075556 140.82895041 30.07028532 150.03079033 C30.06404675 155.52784081 30.06322483 161.02474824 30.07643127 166.52178955 C30.08797939 171.68962103 30.07998286 176.85705991 30.05685425 182.02484894 C30.05156163 183.92233884 30.05309036 185.81986175 30.06190491 187.71733856 C30.07282222 190.30598411 30.05914354 192.89336859 30.03918457 195.48193359 C30.04810746 196.23436655 30.05703034 196.98679951 30.06622362 197.76203346 C30.01245522 201.35270052 29.60661084 203.44296667 27.71997833 206.53323364 C24.63490027 209.39905125 21.81069038 209.2520994 17.80859375 209.16015625 C17.06670303 209.16019653 16.32481232 209.16023682 15.56044006 209.16027832 C13.99618024 209.15492891 12.43192058 209.13737035 10.86791992 209.10839844 C8.47296164 209.06647997 6.08081073 209.0673351 3.68554688 209.07421875 C2.16404295 209.06372776 0.64255352 209.05079013 -0.87890625 209.03515625 C-1.59458267 209.03495483 -2.31025909 209.03475342 -3.04762268 209.0345459 C-7.88977291 208.91913051 -7.88977291 208.91913051 -10.15690708 207.53794765 C-12.21639247 204.44278995 -11.88446458 201.19643514 -11.85643005 197.6018219 C-11.86181559 196.78128686 -11.86720113 195.96075183 -11.87274987 195.11535209 C-11.88709788 192.35612866 -11.87990896 189.59738035 -11.87280273 186.83813477 C-11.87850273 184.863908 -11.88546555 182.88968454 -11.89360046 180.91546631 C-11.91158803 175.54566465 -11.91035297 170.1760259 -11.90465808 164.80620313 C-11.90157426 160.32785607 -11.90764967 155.84954068 -11.91369683 151.37119812 C-11.92775887 140.80855532 -11.92616684 130.24599337 -11.91479492 119.68334961 C-11.90331199 108.77639097 -11.91738858 97.86967816 -11.9441914 86.96275192 C-11.96632323 77.60727469 -11.97299146 68.25187477 -11.96711498 58.89637321 C-11.96373818 53.30485935 -11.9662084 47.7135031 -11.98336601 42.12201118 C-11.99879295 36.86476319 -11.9949269 31.60788032 -11.97606087 26.35064697 C-11.97236317 24.41886911 -11.97551764 22.48706445 -11.98594666 20.5553112 C-11.99907779 17.92244012 -11.98767974 15.29079189 -11.96995544 12.65797424 C-11.97956045 11.88959136 -11.98916546 11.12120848 -11.99906152 10.32954127 C-11.95102039 6.87230393 -11.72462402 4.91446157 -9.65116978 2.0940237 C-6.55117379 -0.07586498 -3.65348532 -0.02631386 0 0 Z " fill="#000000" transform="translate(719.46875,592.43359375)"/>
<path d="M0 0 C0.76550171 -0.00145523 1.53100342 -0.00291046 2.31970215 -0.00440979 C3.93696908 -0.00275098 5.55425183 0.00880852 7.17138672 0.02954102 C9.64749164 0.05849135 12.12145501 0.05015237 14.59765625 0.03710938 C16.16928124 0.04334709 17.74089947 0.0517383 19.3125 0.0625 C20.42353088 0.05809654 20.42353088 0.05809654 21.55700684 0.05360413 C26.57802612 0.14579571 26.57802612 0.14579571 28.85155678 1.52313995 C30.901725 4.62339916 30.56838793 7.8729952 30.53720093 11.46740723 C30.54422089 12.69926813 30.54422089 12.69926813 30.55138266 13.95601511 C30.56338247 16.7175841 30.55385607 19.47866139 30.54443359 22.24023438 C30.54849708 24.21608267 30.5538377 26.19192869 30.56036377 28.16777039 C30.57406966 33.54164613 30.56872522 38.91534958 30.55922651 44.28922844 C30.55164685 49.90526682 30.5586708 55.52129016 30.56338501 61.1373291 C30.56884751 70.56960711 30.56163798 80.00181471 30.54736328 89.43408203 C30.53103585 100.34897774 30.53632401 111.26370534 30.5528425 122.17859697 C30.56644328 131.53915108 30.56838392 140.89965449 30.56052649 150.26021528 C30.55584223 155.85557785 30.55524577 161.45086134 30.56513596 167.04621887 C30.57378287 172.30587979 30.5678254 177.56532335 30.55045319 182.82496071 C30.54647616 184.75876822 30.54764306 186.69259393 30.55424118 188.62639427 C30.56239886 191.25943909 30.5522055 193.89178067 30.53720093 196.52478027 C30.54723918 197.68172386 30.54723918 197.68172386 30.55748022 198.86204004 C30.50068247 203.97524383 30.50068247 203.97524383 28.85155678 206.46904755 C25.91673597 208.24701282 22.64472097 207.94289442 19.3125 207.9296875 C18.54699829 207.93492935 17.78149658 207.9401712 16.99279785 207.9455719 C15.37558199 207.95199057 13.75831944 207.95065705 12.14111328 207.94213867 C9.66484653 207.93362331 7.19088281 207.96239653 4.71484375 207.99414062 C3.14322986 207.99575261 1.57161188 207.99517516 0 207.9921875 C-0.74068726 208.00342148 -1.48137451 208.01465546 -2.24450684 208.02622986 C-7.33317052 207.9571283 -7.33317052 207.9571283 -9.53905678 205.96529388 C-11.3626404 202.51406654 -11.25824659 199.29640994 -11.22470093 195.48718262 C-11.2293809 194.67396026 -11.23406087 193.86073791 -11.23888266 193.02287245 C-11.25086105 190.29437991 -11.24136439 187.566387 -11.23193359 184.83789062 C-11.23599803 182.8832215 -11.24133919 180.92855467 -11.24786377 178.97389221 C-11.26155834 173.6619893 -11.25622986 168.35026089 -11.24672651 163.03835487 C-11.23914102 157.48418323 -11.24617243 151.93002671 -11.25088501 146.37585449 C-11.2563458 137.0479056 -11.24914245 127.72002793 -11.23486328 118.39208984 C-11.21853618 107.60159266 -11.22382445 96.81126552 -11.2403425 86.02077246 C-11.25394814 76.76294163 -11.25588153 67.50516206 -11.24802649 58.24732447 C-11.24334491 52.71510181 -11.24273846 47.18295912 -11.25263596 41.65074158 C-11.26128991 36.45015932 -11.25531242 31.24979669 -11.23795319 26.0492382 C-11.23397994 24.13842573 -11.23513666 22.22759482 -11.24174118 20.31678963 C-11.2499137 17.71261022 -11.23968733 15.10913892 -11.22470093 12.50500488 C-11.23139309 11.74508602 -11.23808526 10.98516715 -11.24498022 10.20222044 C-11.20992321 7.07128162 -11.01374815 4.81782414 -9.53905678 2.02689362 C-6.76641028 -0.47670452 -3.54477482 -0.05376348 0 0 Z " fill="#020202" transform="translate(94.84375,592.50390625)"/>
<path d="M0 0 C9.29308992 7.74883759 11.66747282 26.65141547 13 38 C15.67127482 71.30765067 4.3129392 99.96613942 -14.32421875 127.06640625 C-23.25212243 140.0804776 -31.30732844 153.24784828 -37 168 C-37.37910522 168.9269165 -37.37910522 168.9269165 -37.76586914 169.87255859 C-39.86454353 175.14331043 -41.09061502 180.44301849 -42.1875 186 C-42.36474609 186.87011719 -42.54199219 187.74023438 -42.72460938 188.63671875 C-43.15558102 190.75663333 -43.57862591 192.87815687 -44 195 C-44.33 195 -44.66 195 -45 195 C-49.33302513 177.69369128 -49.99990269 158.43707578 -46 141 C-45.84402344 140.28634277 -45.68804687 139.57268555 -45.52734375 138.83740234 C-41.76147226 121.78288617 -36.37652713 105.37230804 -28 90 C-56.99589312 120.00796618 -76.21989849 156.83420665 -76.07617188 199.14013672 C-75.95751736 203.59500542 -75.47971796 207.96234701 -74.875 212.375 C-74.74738281 213.31037598 -74.61976563 214.24575195 -74.48828125 215.20947266 C-72.55420055 228.21442292 -68.72905866 240.75511597 -64 253 C-68.01657791 251.6611407 -69.69468769 248.99395916 -72.1875 245.75 C-72.67436279 245.11884277 -73.16122559 244.48768555 -73.6628418 243.83740234 C-88.36122552 224.49882221 -95.59996532 204.29623481 -95.375 179.875 C-95.38660156 178.60785156 -95.39820313 177.34070313 -95.41015625 176.03515625 C-95.38505708 167.91139314 -94.32100227 160.77206753 -92 153 C-91.70738281 151.86046875 -91.41476562 150.7209375 -91.11328125 149.546875 C-84.90778622 127.87304846 -71.46563485 109.28926524 -57.54345703 91.92529297 C-56.25879801 90.32282207 -54.98538078 88.71134687 -53.71484375 87.09765625 C-50.60537134 83.15813987 -47.4142106 79.30625332 -44.14306641 75.49975586 C-37.37821862 67.60980458 -31.08151111 59.42676369 -25 51 C-24.55237305 50.38398926 -24.10474609 49.76797852 -23.64355469 49.13330078 C-12.81534041 34.08782456 -5.73206724 17.55586084 0 0 Z " fill="#FAFAFA" transform="translate(386,375)"/>
<path d="M0 0 C2.547024 7.7657515 -2.31821815 16.11859201 -5.75 23 C-7.13598755 25.68376737 -8.56214252 28.3437623 -10 31 C-10.75023437 32.43859375 -10.75023437 32.43859375 -11.515625 33.90625 C-19.63580292 48.09519247 -32.93315486 59.0716915 -47 67 C-48.28965751 67.75158411 -49.57870308 68.50421907 -50.8671875 69.2578125 C-56.78000861 72.67736264 -62.74345907 75.91208934 -68.90356445 78.86401367 C-91.80846327 89.88389378 -110.99155044 105.67271509 -125 127 C-125.51433594 127.76828125 -126.02867187 128.5365625 -126.55859375 129.328125 C-134.16214659 141.2568157 -137.90684576 154.34253437 -141 168 C-141.26127686 168.91954468 -141.26127686 168.91954468 -141.52783203 169.85766602 C-142.10403805 172.47204442 -142.21679161 174.96526046 -142.31640625 177.640625 C-142.35830078 178.71054687 -142.40019531 179.78046875 -142.44335938 180.8828125 C-142.50233398 182.54957031 -142.50233398 182.54957031 -142.5625 184.25 C-142.60568359 185.37664062 -142.64886719 186.50328125 -142.69335938 187.6640625 C-142.79932015 190.44258954 -142.90139142 193.22120391 -143 196 C-156.92814993 179.99028042 -158.249051 157.18344183 -157 137 C-154.48493191 107.92858644 -136.84765705 80.53870073 -115 62 C-103.80085401 53.33033931 -91.78311565 46.33401598 -78.78076172 40.77001953 C-76.30414551 39.69910542 -73.87551848 38.53061351 -71.4375 37.375 C-67.92756689 35.78243333 -64.38481945 34.38823409 -60.75976562 33.0793457 C-38.86250236 25.15888375 -17.59390293 15.4723928 0 0 Z " fill="#FBFBFB" transform="translate(382,304)"/>
<path d="M0 0 C0.71873795 -0.00524185 1.43747589 -0.0104837 2.17799377 -0.0158844 C3.69685577 -0.02230231 5.21576748 -0.0209705 6.73461914 -0.01245117 C9.05510311 -0.00394767 11.37311911 -0.03268925 13.69335938 -0.06445312 C15.17057218 -0.06606549 16.64778933 -0.06548694 18.125 -0.0625 C18.81677841 -0.07373398 19.50855682 -0.08496796 20.22129822 -0.09654236 C23.32660157 -0.05177408 25.26567701 0.17416057 27.81867981 1.99761963 C30.24547903 5.26329953 30.13844818 8.00470578 30.02832031 11.91088867 C30.02090694 13.03993464 30.02090694 13.03993464 30.01334381 14.19178963 C29.99248964 16.70396313 29.94334037 19.2147888 29.89453125 21.7265625 C29.87443576 23.51415437 29.85635159 25.30176985 29.84014893 27.08940125 C29.80333633 30.89943818 29.75601836 34.70915283 29.7019043 38.51898193 C29.62317961 44.38198953 29.59693949 50.24443139 29.58398438 56.10791016 C29.56318059 64.99316954 29.51622271 73.8778192 29.44493866 82.76281929 C29.40486466 87.82602962 29.37289665 92.88904029 29.35791016 97.95239258 C29.34282596 102.97186417 29.30863812 107.99086149 29.26059723 113.0101223 C29.24581748 114.89716702 29.2378672 116.78427859 29.2370224 118.671381 C29.23467347 121.27014286 29.20780528 123.86753719 29.17480469 126.46606445 C29.18235023 127.61797272 29.18235023 127.61797272 29.19004822 128.79315186 C29.12493705 132.08592023 29.0874033 133.93983827 26.79705811 136.40631104 C23.67951008 137.88342307 21.03775335 137.84040857 17.59765625 137.8671875 C16.92472534 137.87242935 16.25179443 137.8776712 15.55847168 137.8830719 C14.13974382 137.88947785 12.72096275 137.88817352 11.30224609 137.87963867 C9.13542978 137.8711194 6.97124412 137.89991692 4.8046875 137.93164062 C3.42317787 137.93325267 2.04166359 137.93267505 0.66015625 137.9296875 C-1.21833008 137.93246704 -1.21833008 137.93246704 -3.13476562 137.93530273 C-7.02948712 137.33152688 -7.95678623 136.47732721 -10.37109375 133.43359375 C-10.871665 130.91952419 -10.871665 130.91952419 -10.87229919 128.03746033 C-10.88213333 126.94245712 -10.89196747 125.84745392 -10.90209961 124.7192688 C-10.89243164 123.52276703 -10.88276367 122.32626526 -10.87280273 121.09350586 C-10.87820572 119.82977646 -10.8836087 118.56604706 -10.88917542 117.26402283 C-10.90313324 113.80118402 -10.89195914 110.33884189 -10.8754642 106.87603068 C-10.86161258 103.25260068 -10.86807379 99.62919948 -10.87159729 96.00575256 C-10.87429899 89.9219665 -10.86082623 83.83837778 -10.83764648 77.75463867 C-10.8110249 70.71880688 -10.8092935 63.6833048 -10.82103485 56.6474399 C-10.83180908 49.8802944 -10.82562917 43.11326829 -10.81147957 36.34613228 C-10.80571784 33.46539046 -10.80580384 30.58473595 -10.81054497 27.70399284 C-10.81619771 23.68390784 -10.79700938 19.66431653 -10.77514648 15.64428711 C-10.77964813 14.44576111 -10.78414978 13.24723511 -10.78878784 12.01239014 C-10.77888321 10.92020676 -10.76897858 9.82802338 -10.7587738 8.70274353 C-10.75634391 7.75203948 -10.75391401 6.80133543 -10.75141048 5.82182217 C-10.37109375 3.43359375 -10.37109375 3.43359375 -9.05351353 1.62952518 C-6.30219747 -0.32622058 -3.25362518 -0.01376684 0 0 Z " fill="#010101" transform="translate(771.37109375,627.56640625)"/>
<path d="M0 0 C0.67197418 -0.00524185 1.34394836 -0.0104837 2.0362854 -0.0158844 C3.45679342 -0.02230146 4.8773546 -0.02097158 6.29785156 -0.01245117 C8.46256201 -0.00396116 10.62461419 -0.03266649 12.7890625 -0.06445312 C14.17187421 -0.06606591 15.55469057 -0.06548612 16.9375 -0.0625 C18.19095215 -0.06435303 19.4444043 -0.06620605 20.73583984 -0.06811523 C24.9889433 0.56587052 26.28755262 1.14643111 29.1015625 4.43359375 C29.87318681 8.43323899 29.7734239 12.40440326 29.73266602 16.46655273 C29.73982132 17.69780884 29.74697662 18.92906494 29.75434875 20.19763184 C29.76836291 23.57214217 29.75992479 26.94512083 29.74025846 30.31950641 C29.72386754 33.8525857 29.73268562 37.38561512 29.73777771 40.91871643 C29.74229881 46.85292167 29.72642968 52.78681173 29.69848633 58.72094727 C29.66644875 65.57731682 29.66644416 72.43311748 29.6837011 79.28952736 C29.69957834 85.88903957 29.69282408 92.48834362 29.67576408 99.08784676 C29.66889936 101.89439512 29.66992002 104.70077634 29.67730904 107.50732231 C29.68640937 111.42884796 29.66241064 115.3497917 29.63500977 119.27124023 C29.64153564 120.43452347 29.64806152 121.5978067 29.65478516 122.79634094 C29.56170723 130.62100109 29.56170723 130.62100109 27.27722168 134.6552887 C24.12932855 137.22826258 21.84217659 137.04928935 17.81640625 137.02734375 C17.11890762 137.02738403 16.421409 137.02742432 15.70277405 137.02746582 C14.23266558 137.02211821 12.76255712 137.00456719 11.29272461 136.97558594 C9.04256961 136.9336591 6.79540233 136.9345233 4.54492188 136.94140625 C-6.29812351 136.86187829 -6.29812351 136.86187829 -8.57554054 135.23709106 C-10.37261951 132.78714433 -10.27579394 131.18311607 -10.27938843 128.15771484 C-10.2878479 127.0640863 -10.29630737 125.97045776 -10.30502319 124.84368896 C-10.2989505 123.64359192 -10.29287781 122.44349487 -10.28662109 121.20703125 C-10.29187805 119.94344788 -10.29713501 118.6798645 -10.30255127 117.37799072 C-10.31623952 113.91104776 -10.31092018 110.44437232 -10.30141401 106.97742462 C-10.29382515 103.35131604 -10.30086087 99.72523056 -10.30557251 96.09912109 C-10.31103233 90.00939822 -10.30383256 83.91978444 -10.28955078 77.83007812 C-10.27322375 70.78689264 -10.2785121 63.74396767 -10.29503 56.7007885 C-10.30863846 50.65654709 -10.31056769 44.61238417 -10.30271399 38.5681324 C-10.29803392 34.95689752 -10.29742169 31.34578514 -10.30732346 27.73455811 C-10.31758851 23.70960021 -10.30336626 19.68509231 -10.28662109 15.66015625 C-10.29269379 14.4600592 -10.29876648 13.25996216 -10.30502319 12.02349854 C-10.29656372 10.92987 -10.28810425 9.83624146 -10.27938843 8.70947266 C-10.27825735 7.75746979 -10.27712627 6.80546692 -10.27596092 5.82461548 C-9.8984375 3.43359375 -9.8984375 3.43359375 -8.56881142 1.62910461 C-5.8592882 -0.31014049 -3.27828104 0.02554231 0 0 Z " fill="#030303" transform="translate(43.8984375,630.56640625)"/>
<path d="M0 0 C7.32564987 5.20935102 11.36184866 13.51212174 13.8125 22 C15.00424083 31.8165044 13.59735274 42.74070158 7.8125 51 C5.29476206 53.53703095 2.63393213 55.8085964 -0.1875 58 C-1.3452506 54.52674819 -1.25616652 51.63932552 -1.1875 48 C-1.6515625 48.4846875 -2.115625 48.969375 -2.59375 49.46875 C-13.47449543 60.02469706 -28.62731841 67.11157409 -43.8125 67.1875 C-45.93788634 67.13991672 -48.06318814 67.08264614 -50.1875 67 C-45.92754908 63.46811342 -41.44162596 60.63262387 -36.7109375 57.78125 C-34.25893697 56.0504261 -32.81745079 54.49415288 -31.1875 52 C-32.09628906 52.39832031 -32.09628906 52.39832031 -33.0234375 52.8046875 C-45.55042302 58.08529371 -61.57612531 61.21161038 -74.8125 56.4375 C-79.56400939 54.14423679 -83.58340449 50.83564354 -87.1875 47 C-87.1875 46.67 -87.1875 46.34 -87.1875 46 C-85.92035156 45.95101562 -84.65320313 45.90203125 -83.34765625 45.8515625 C-81.64841904 45.77645809 -79.94920124 45.70091368 -78.25 45.625 C-77.00379883 45.57859375 -77.00379883 45.57859375 -75.73242188 45.53125 C-70.00502631 45.26382297 -64.75391529 44.38177413 -59.1875 43 C-59.66316406 42.57332031 -60.13882813 42.14664063 -60.62890625 41.70703125 C-63.12747105 38.9705079 -63.12595026 36.63143458 -63.1875 33 C-60.61502912 28.29200903 -57.97089714 25.81894726 -53.375 23.125 C-52.81167969 22.79040771 -52.24835937 22.45581543 -51.66796875 22.11108398 C-46.80424958 19.25858202 -41.80021821 16.6763086 -36.79589844 14.08178711 C-31.23118805 11.14309554 -26.17469825 7.67794982 -21.08984375 3.98046875 C-13.95802302 -0.88606303 -8.32584658 -2.6120303 0 0 Z " fill="#FBFBFB" transform="translate(631.1875,438)"/>
<path d="M0 0 C0 0.66 0 1.32 0 2 C-0.97582031 2.48210937 -1.95164062 2.96421875 -2.95703125 3.4609375 C-4.24224049 4.09885158 -5.52739382 4.73687831 -6.8125 5.375 C-7.45509766 5.69210938 -8.09769531 6.00921875 -8.75976562 6.3359375 C-11.63194461 7.76458611 -14.3267821 9.21785473 -17 11 C-20.35593416 10.80823233 -22.49585884 9.74321596 -25.5 8.1875 C-37.65474343 2.03120138 -51.92084973 -0.80639848 -65.296875 2.91796875 C-70.45658675 5.27647605 -73.46959983 7.93919966 -76 13 C-79.21989533 22.65968598 -77.17753208 33.69760404 -73.8984375 43 C-71.81775467 49.94767138 -72.31316011 57.28290026 -75 64 C-77 66.9375 -77 66.9375 -79 69 C-79.66 69 -80.32 69 -81 69 C-98.52966638 27.25333307 -98.52966638 27.25333307 -92.0625 8.1875 C-86.7066226 -3.93761133 -77.99375875 -10.28767554 -66 -15 C-44.412938 -22.1529195 -16.96686385 -14.26759006 0 0 Z " fill="#F9F8F9" transform="translate(368,218)"/>
<path d="M0 0 C0 3.84284558 -1.5667341 6.26611103 -3.4375 9.5 C-3.79875977 10.12511475 -4.16001953 10.75022949 -4.53222656 11.39428711 C-8.11806585 17.43826086 -12.3259856 22.7536573 -17 28 C-17.47518066 28.53544434 -17.95036133 29.07088867 -18.43994141 29.62255859 C-24.29055142 36.18495831 -30.22584071 42.38039308 -37 48 C-38.07330822 48.92120747 -39.14475219 49.8445892 -40.21484375 50.76953125 C-45.62592487 55.44341599 -51.05758812 60.07473095 -56.625 64.5625 C-75.30436772 79.7704808 -89.43635203 97.28878383 -100 119 C-100.33 119 -100.66 119 -101 119 C-100.87620648 93.25094762 -81.10930611 69.95133247 -64.0625 52.6875 C-57.76031055 46.44954239 -51.16699477 40.83454338 -44.0625 35.54003906 C-39.78923082 32.34925047 -35.55542877 29.10595304 -31.3125 25.875 C-29.94641602 24.83653931 -29.94641602 24.83653931 -28.55273438 23.77709961 C-18.65884102 16.24392096 -9.16724878 8.41159704 0 0 Z " fill="#F6F6F6" transform="translate(372,376)"/>
<path d="M0 0 C6.93 0 13.86 0 21 0 C21 14.19 21 28.38 21 43 C14.07 43 7.14 43 0 43 C-2.63185269 40.36814731 -2.24871862 38.46131131 -2.27789307 34.87854004 C-2.2738446 34.04205933 -2.26979614 33.20557861 -2.265625 32.34375 C-2.26753845 31.48567749 -2.2694519 30.62760498 -2.27142334 29.74353027 C-2.27278544 27.92781278 -2.26908728 26.11208555 -2.26074219 24.29638672 C-2.25004291 21.5111715 -2.26063653 18.72660132 -2.2734375 15.94140625 C-2.27211591 14.17968607 -2.26955353 12.41796629 -2.265625 10.65625 C-2.26967346 9.81976929 -2.27372192 8.98328857 -2.27789307 8.12145996 C-2.22991834 2.22991834 -2.22991834 2.22991834 0 0 Z " fill="#020202" transform="translate(2,678)"/>
<path d="M0 0 C6.6 0 13.2 0 20 0 C22.66070205 2.66070205 22.24916545 4.65479678 22.27789307 8.27392578 C22.2738446 9.13228027 22.26979614 9.99063477 22.265625 10.875 C22.26753845 11.75526855 22.2694519 12.63553711 22.27142334 13.54248047 C22.27278552 15.40527634 22.26908682 17.26808169 22.26074219 19.13085938 C22.25004307 21.98849736 22.26063632 24.84550666 22.2734375 27.703125 C22.27211591 29.51041806 22.26955353 31.31771073 22.265625 33.125 C22.26967346 33.98335449 22.27372192 34.84170898 22.27789307 35.72607422 C22.22991745 41.77008255 22.22991745 41.77008255 20 44 C13.4 44 6.8 44 0 44 C0 29.48 0 14.96 0 0 Z " fill="#060606" transform="translate(811,677)"/>
<path d="M0 0 C5.59809521 5.59809521 5.08222135 15.43461739 5.3125 22.875 C5.25843212 31.90433595 3.27369052 40.29975956 1 49 C0.69191406 50.18335938 0.38382813 51.36671875 0.06640625 52.5859375 C-0.59949853 55.06476006 -1.28343038 57.53543478 -2 60 C-2.66 60 -3.32 60 -4 60 C-5.29761299 57.62808416 -6.58816317 55.25275386 -7.875 52.875 C-8.23980469 52.20984375 -8.60460937 51.5446875 -8.98046875 50.859375 C-14.07049616 41.4196878 -16.11410393 31.55177589 -13.16015625 21 C-10.06353318 13.82667788 -5.54820173 5.54820173 0 0 Z " fill="#F8F8F8" transform="translate(651,369)"/>
<path d="M0 0 C0.33 0 0.66 0 1 0 C0.22470485 21.70826427 -14.42486712 39.99161472 -27.64453125 55.99023438 C-40.34332843 71.36015786 -49.48576557 85.62316503 -55 105 C-55.33 105 -55.66 105 -56 105 C-58.08225654 78.39338865 -42.269272 59.24795214 -26.3515625 39.87109375 C-16.05006776 27.29368739 -6.95685814 14.81676998 0 0 Z " fill="#F1F1F1" transform="translate(413,474)"/>
<path d="M0 0 C3.78171013 2.03630545 7.09528802 4.08475871 9 8 C9.73940087 12.77415625 9.45664981 16.10300929 7.25 20.4375 C4.02597451 24.10930681 2.48376618 24.86261424 -2.375 25.3125 C-7.14541578 24.90125726 -10.30180973 23.5810737 -13.8125 20.3125 C-15.53119449 16.96556862 -16.10779154 13.72240127 -16 10 C-14.71485486 6.0689678 -13.37948288 4.32773522 -10.25 1.625 C-6.38918695 -0.30540652 -4.26568014 -0.60938288 0 0 Z " fill="#060606" transform="translate(313,23)"/>
<path d="M0 0 C3.47933373 2.40493825 5.51104173 5.11069185 6.57421875 9.21875 C6.92390408 13.75688852 6.07140511 16.47281781 3.1875 20 C0.27957228 23.10178956 -1.99344396 23.86450207 -6.25 24.4375 C-11.21590295 23.85814466 -13.76761739 21.71851931 -17 18 C-19.03739921 14.49377811 -19.48945162 12.07876353 -19 8 C-17.1835792 4.43702073 -15.55645644 2.40116627 -12.3125 0.0625 C-7.88458651 -1.35777414 -4.42420086 -1.52993755 0 0 Z " fill="#050505" transform="translate(423,1)"/>
<path d="M0 0 C6.21650705 4.87332824 10.32311248 9.78726829 11.37890625 17.91796875 C11.47831932 22.82897422 11.01876398 26.48413037 9 31 C4.0276578 29.50829734 -0.41845739 27.39542583 -5 25 C-4.54625 23.845 -4.0925 22.69 -3.625 21.5 C-1.272814 14.55492001 -0.75671778 7.2555881 0 0 Z " fill="#0D0D0D" transform="translate(529,201)"/>
<path d="M0 0 C0 3.23655184 -0.6550847 4.78752639 -2 7.6875 C-2.556875 8.89986328 -2.556875 8.89986328 -3.125 10.13671875 C-3.558125 11.05904297 -3.558125 11.05904297 -4 12 C-4.33 11.34 -4.66 10.68 -5 10 C-7.64 11.98 -10.28 13.96 -13 16 C-10.95652069 11.91304138 -8.46513887 9.02837068 -5.375 5.75 C-4.859375 5.19570313 -4.34375 4.64140625 -3.8125 4.0703125 C-2.54574965 2.7097288 -1.27342185 1.35434163 0 0 Z " fill="#18191A" transform="translate(358,464)"/>
<path d="M0 0 C0.66 0.33 1.32 0.66 2 1 C-1.73588876 5.5436485 -5.21326467 9.53374338 -10 13 C-10.66 12.67 -11.32 12.34 -12 12 C-8.04 8.04 -4.08 4.08 0 0 Z " fill="#E3E3E3" transform="translate(485,448)"/>
<path d="M0 0 C2.75026417 -0.05404449 5.49946203 -0.09369306 8.25 -0.125 C9.02730469 -0.14175781 9.80460937 -0.15851563 10.60546875 -0.17578125 C17.72431144 -0.23662606 17.72431144 -0.23662606 21 2 C18.69 2.33 16.38 2.66 14 3 C14 2.34 14 1.68 14 1 C9.38 1 4.76 1 0 1 C0 0.67 0 0.34 0 0 Z " fill="#B6B7B7" transform="translate(392,226)"/>
<path d="M0 0 C2.94149514 0.0644123 5.17067353 1.05689118 8 2 C8 2.33 8 2.66 8 3 C2.06 3.495 2.06 3.495 -4 4 C-2.68 2.68 -1.36 1.36 0 0 Z " fill="#515252" transform="translate(330,155)"/>
<path d="M0 0 C0 3.5595477 -0.61579539 4.44549506 -3 7 C-5.109375 7.6171875 -5.109375 7.6171875 -7 8 C-6.02133662 6.85373678 -5.04205413 5.70800212 -4.0625 4.5625 C-3.51722656 3.92441406 -2.97195313 3.28632813 -2.41015625 2.62890625 C-1.63204305 1.73008851 -0.84063472 0.84063472 0 0 Z " fill="#4F4E50" transform="translate(358,464)"/>
<path d="M0 0 C2 3 2 3 1.75 6.125 C1.5025 7.07375 1.255 8.0225 1 9 C0.01 9.495 0.01 9.495 -1 10 C-0.67 6.7 -0.34 3.4 0 0 Z " fill="#CBCBCD" transform="translate(272,485)"/>
<path d="M0 0 C0.33 0 0.66 0 1 0 C0.67 2.97 0.34 5.94 0 9 C-0.99 8.67 -1.98 8.34 -3 8 C-1.125 2.25 -1.125 2.25 0 0 Z " fill="#C7C8C9" transform="translate(413,474)"/>
</svg>
